<svg height="422" width="550" fill="none" viewBox="0 0 550 422" xmlns="http://www.w3.org/2000/svg">
	<g clipPath="url(#clip0)">
		<mask height="548" id="mask0" width="544" x="3" y="-159" maskUnits="userSpaceOnUse">
			<path d="M275.157 389C424.952 389 546.384 266.462 546.384 115.304C546.384 -35.8548 424.952 -158.393 275.157 -158.393C125.362 -158.393 3.92969 -35.8548 3.92969 115.304C3.92969 266.462 125.362 389 275.157 389Z" fill="#A8D9DB"/>
		</mask>
		<g mask="url(#mask0)">
			<g opacity="0.1">
				<path d="M-26.334 162.995C8.33509 145.408 39.3708 136.615 66.7733 136.615C116.566 136.615 154.086 162.995 209.107 162.995C264.716 162.995 295.14 136.615 359.253 136.615C423.366 136.615 446.231 162.995 498.012 162.995C532.532 162.995 561.729 154.201 585.602 136.615V106.309C551.446 124.795 522.25 134.038 498.012 134.038C461.656 134.038 417.594 106.309 359.253 106.309C300.911 106.309 252.938 134.038 209.107 134.038C165.277 134.038 114.809 106.309 66.7733 106.309C34.7498 106.309 3.71405 115.552 -26.334 134.038V162.995Z" fill="#6970BC" fillRule="evenodd"/>
				<path d="M-26.3337 222.351C8.33534 204.764 39.3711 195.97 66.7735 195.97C116.566 195.97 154.086 222.351 209.108 222.351C264.716 222.351 295.14 195.97 359.253 195.97C423.366 195.97 446.232 222.351 498.012 222.351C532.533 222.351 561.729 213.557 585.602 195.97V165.664C551.447 184.151 522.25 193.394 498.012 193.394C461.656 193.394 417.595 165.664 359.253 165.664C300.911 165.664 252.938 193.394 209.108 193.394C165.277 193.394 114.809 165.664 66.7735 165.664C34.75 165.664 3.71429 174.908 -26.3337 193.394V222.351Z" fill="#6970BC" fillRule="evenodd"/>
				<path d="M-26.3342 235.541C8.33488 217.954 39.3706 209.16 66.7731 209.16C116.565 209.16 154.086 235.541 209.107 235.541C264.715 235.541 295.139 209.16 359.253 209.16C423.366 209.16 446.231 235.541 498.012 235.541C532.532 235.541 561.729 226.747 585.602 209.16V178.854C551.446 197.341 522.249 206.584 498.012 206.584C461.655 206.584 417.594 178.854 359.253 178.854C300.911 178.854 252.938 206.584 209.107 206.584C165.277 206.584 114.808 178.854 66.7731 178.854C34.7496 178.854 3.71383 188.098 -26.3342 206.584V235.541Z" fill="#6970BC" fillRule="evenodd"/>
				<path d="M-26.3337 281.707C8.33534 264.12 39.3711 255.327 66.7735 255.327C116.566 255.327 154.086 281.707 209.108 281.707C264.716 281.707 295.14 255.327 359.253 255.327C423.366 255.327 446.232 281.707 498.012 281.707C532.533 281.707 561.729 272.914 585.602 255.327V225.021C551.447 243.508 522.25 252.751 498.012 252.751C461.656 252.751 417.595 225.021 359.253 225.021C300.911 225.021 252.938 252.751 209.108 252.751C165.277 252.751 114.809 225.021 66.7735 225.021C34.75 225.021 3.71429 234.264 -26.3337 252.751V281.707Z" fill="#6970BC" fillRule="evenodd"/>
				<path d="M-26.3342 308.087C8.33488 290.501 39.3706 281.707 66.7731 281.707C116.565 281.707 154.086 308.087 209.107 308.087C264.715 308.087 295.139 281.707 359.253 281.707C423.366 281.707 446.231 308.087 498.012 308.087C532.532 308.087 561.729 299.294 585.602 281.707V251.401C551.446 269.888 522.249 279.131 498.012 279.131C461.655 279.131 417.594 251.401 359.253 251.401C300.911 251.401 252.938 279.131 209.107 279.131C165.277 279.131 114.808 251.401 66.7731 251.401C34.7496 251.401 3.71383 260.644 -26.3342 279.131V308.087Z" fill="#6970BC" fillRule="evenodd"/>
				<path d="M-26.3337 97.0447C8.33534 79.4578 39.3711 70.6643 66.7735 70.6643C116.566 70.6643 154.086 97.0447 209.108 97.0447C264.716 97.0447 295.14 70.6643 359.253 70.6643C423.366 70.6643 446.232 97.0447 498.012 97.0447C532.533 97.0447 561.729 88.2512 585.602 70.6643V57.896C551.447 76.3824 522.25 85.6256 498.012 85.6256C461.656 85.6256 417.595 57.896 359.253 57.896C300.911 57.896 252.938 85.6256 209.108 85.6256C165.277 85.6256 114.809 57.896 66.7735 57.896C34.75 57.896 3.71429 67.1392 -26.3337 85.6256V97.0447Z" fill="#6970BC" fillRule="evenodd"/>
				<path d="M-26.3337 90.4492C8.33534 72.8622 39.3711 64.0688 66.7735 64.0688C116.566 64.0688 154.086 90.4492 209.108 90.4492C264.716 90.4492 295.14 64.0688 359.253 64.0688C423.366 64.0688 446.232 90.4492 498.012 90.4492C532.533 90.4492 561.729 81.6557 585.602 64.0688V51.3004C551.447 69.7869 522.25 79.0301 498.012 79.0301C461.656 79.0301 417.595 51.3004 359.253 51.3004C300.911 51.3004 252.938 79.0301 209.108 79.0301C165.277 79.0301 114.809 51.3004 66.7735 51.3004C34.75 51.3004 3.71429 60.5437 -26.3337 79.0301V90.4492Z" fill="#6970BC" fillRule="evenodd"/>
				<path d="M-26.3333 44.2835C8.3358 26.6966 39.3715 17.9031 66.774 17.9031C116.566 17.9031 154.087 44.2835 209.108 44.2835C264.716 44.2835 295.14 17.9031 359.254 17.9031C423.367 17.9031 446.232 44.2835 498.013 44.2835C532.533 44.2835 561.73 35.49 585.603 17.9031V5.13477C551.447 23.6212 522.25 32.8644 498.013 32.8644C461.656 32.8644 417.595 5.13477 359.254 5.13477C300.912 5.13477 252.938 32.8644 209.108 32.8644C165.278 32.8644 114.809 5.13477 66.774 5.13477C34.7505 5.13477 3.71475 14.378 -26.3333 32.8644V44.2835Z" fill="#6970BC" fillRule="evenodd"/>
			</g>
		</g>
		<g opacity="0.5">
			<path d="M261.454 222.958H229.331V229.764H261.454V222.958Z" fill="#E6E6E6" opacity="0.5"/>
			<path d="M335.217 222.958H303.094V229.764H335.217V222.958Z" fill="#E6E6E6" opacity="0.5"/>
			<path d="M408.981 222.958H376.857V229.764H408.981V222.958Z" fill="#E6E6E6" opacity="0.5"/>
		</g>
		<path d="M270.5 422C333.184 422 384 419.09 384 415.5C384 411.91 333.184 409 270.5 409C207.816 409 157 411.91 157 415.5C157 419.09 207.816 422 270.5 422Z" fill="#6970BC" opacity="0.1"/>
		<path d="M327.123 404.641V408.442H214.568V405.355C221.432 402.815 227.388 398.298 231.68 392.376C235.973 386.454 238.41 379.393 238.682 372.087C238.955 364.781 237.051 357.558 233.212 351.334C229.372 345.109 223.77 340.162 217.114 337.119H326.359C319.853 340.094 314.35 344.891 310.518 350.927C306.686 356.964 304.689 363.981 304.77 371.128C304.851 378.275 307.006 385.245 310.973 391.193C314.941 397.142 320.551 401.813 327.123 404.641Z" fill="#E6E6E6"/>
		<path d="M326.359 337.119C321.339 339.421 316.897 342.816 313.36 347.054C309.823 351.292 307.28 356.267 305.917 361.614H237.561C236.197 356.268 233.654 351.293 230.117 347.055C226.58 342.816 222.139 339.422 217.119 337.119H326.359Z" fill="black" opacity="0.1"/>
		<path d="M85.6637 317.752V339.092C85.6637 350.876 94.2982 360.428 104.953 360.428H436.13C446.785 360.428 455.419 350.876 455.419 339.092V317.752H85.6637Z" fill="#E6E6E6"/>
		<path d="M327.123 404.641V408.442H214.568V405.355C217.654 404.209 220.572 402.655 223.246 400.737H320.222C322.376 402.28 324.69 403.589 327.123 404.641Z" fill="black" opacity="0.1"/>
		<path d="M359.695 401.923H181.997C179.443 401.923 177.373 403.991 177.373 406.541V408.569C177.373 411.119 179.443 413.187 181.997 413.187H359.695C362.249 413.187 364.319 411.119 364.319 408.569V406.541C364.319 403.991 362.249 401.923 359.695 401.923Z" fill="#E6E6E6"/>
		<path d="M455.419 83.9139C455.413 78.8092 453.378 73.9158 449.761 70.309C446.144 66.7021 441.242 64.6769 436.13 64.6782H104.967C99.8536 64.673 94.9473 66.6966 91.3273 70.3038C87.7073 73.9111 85.6701 78.8067 85.6637 83.9139V321.903H455.419V83.9139Z" fill="#424242"/>
		<path d="M445.354 92.5085V297.004C445.355 298.25 445.11 299.483 444.633 300.634C444.156 301.785 443.456 302.831 442.574 303.712C441.692 304.593 440.645 305.291 439.493 305.768C438.341 306.244 437.105 306.489 435.858 306.488H105.264C104.017 306.489 102.782 306.244 101.63 305.768C100.477 305.291 99.4302 304.593 98.5482 303.712C97.6663 302.831 96.9669 301.785 96.4899 300.634C96.0129 299.483 95.7677 298.25 95.7683 297.004V92.5085C95.7683 89.9931 96.7688 87.5808 98.5497 85.8021C100.331 84.0235 102.746 83.0243 105.264 83.0243H435.834C437.083 83.0211 438.32 83.2641 439.475 83.7392C440.63 84.2144 441.68 84.9125 442.564 85.7935C443.449 86.6745 444.15 87.7211 444.629 88.8734C445.108 90.0257 445.354 91.2609 445.354 92.5085Z" fill="url(#paint0_linear)"/>
		<path d="M270.547 78.2846C273.006 78.2846 275 76.2932 275 73.8366C275 71.3801 273.006 69.3886 270.547 69.3886C268.087 69.3886 266.093 71.3801 266.093 73.8366C266.093 76.2932 268.087 78.2846 270.547 78.2846Z" fill="white"/>
		<path d="M270.547 350.949C276.611 350.949 281.527 346.039 281.527 339.982C281.527 333.925 276.611 329.015 270.547 329.015C264.482 329.015 259.566 333.925 259.566 339.982C259.566 346.039 264.482 350.949 270.547 350.949Z" fill="white"/>
		<path d="M169.639 87.7688V306.488H105.264C104.017 306.489 102.782 306.244 101.63 305.768C100.477 305.291 99.4302 304.593 98.5482 303.712C97.6663 302.831 96.9669 301.785 96.4899 300.634C96.0129 299.483 95.7677 298.25 95.7683 297.004V92.5085L96.1139 91.2202L97.0387 87.7688H169.639Z" fill="white"/>
		<path d="M177.898 91.2202V110.908H95.7683V92.5085L96.1139 91.2202H177.898Z" fill="#4C4C78"/>
		<path d="M445.354 92.5085H95.7683C95.7683 91.2632 96.014 90.0302 96.4913 88.8798C96.9686 87.7294 97.6681 86.6842 98.55 85.8039C99.4318 84.9236 100.479 84.2254 101.631 83.7493C102.783 83.2732 104.018 83.0285 105.264 83.0292H435.834C437.083 83.0253 438.32 83.2677 439.475 83.7423C440.63 84.217 441.68 84.9146 442.564 85.7953C443.448 86.6759 444.15 87.7222 444.629 88.8742C445.108 90.0261 445.354 91.2612 445.354 92.5085Z" fill="#C8CAD7"/>
		<path d="M105.264 90.1411C106.576 90.1411 107.639 89.079 107.639 87.7688C107.639 86.4586 106.576 85.3965 105.264 85.3965C103.952 85.3965 102.889 86.4586 102.889 87.7688C102.889 89.079 103.952 90.1411 105.264 90.1411Z" fill="#EDEDF4"/>
		<path d="M112.385 90.1411C113.697 90.1411 114.76 89.079 114.76 87.7688C114.76 86.4586 113.697 85.3965 112.385 85.3965C111.073 85.3965 110.01 86.4586 110.01 87.7688C110.01 89.079 111.073 90.1411 112.385 90.1411Z" fill="#EDEDF4"/>
		<path d="M119.506 90.1411C120.817 90.1411 121.881 89.079 121.881 87.7688C121.881 86.4586 120.817 85.3965 119.506 85.3965C118.194 85.3965 117.13 86.4586 117.13 87.7688C117.13 89.079 118.194 90.1411 119.506 90.1411Z" fill="#EDEDF4"/>
		<path d="M157.363 99.8878H108.043V104.423H157.363V99.8878Z" fill="#CC8CEA"/>
		<path d="M157.363 122.006H108.043V126.542H157.363V122.006Z" fill="#955CBF" opacity="0.5"/>
		<path d="M157.363 137.645H108.043V142.18H157.363V137.645Z" fill="#955CBF" opacity="0.5"/>
		<path d="M157.363 153.283H108.043V157.819H157.363V153.283Z" fill="#955CBF" opacity="0.5"/>
		<path d="M157.363 168.917H108.043V173.452H157.363V168.917Z" fill="#955CBF" opacity="0.5"/>
		<path d="M157.363 184.555H108.043V189.091H157.363V184.555Z" fill="#955CBF" opacity="0.5"/>
		<path d="M157.363 200.194H108.043V204.729H157.363V200.194Z" fill="#955CBF" opacity="0.5"/>
		<path d="M157.363 215.827H108.043V220.363H157.363V215.827Z" fill="#955CBF" opacity="0.5"/>
		<path d="M428.562 116.567H210.017V117.296H428.562V116.567Z" fill="#E6E6E6" opacity="0.5"/>
		<path d="M428.562 133.498H210.017V134.227H428.562V133.498Z" fill="#E6E6E6" opacity="0.5"/>
		<path d="M428.562 150.434H210.017V151.164H428.562V150.434Z" fill="#E6E6E6" opacity="0.5"/>
		<path d="M428.562 167.366H210.017V168.095H428.562V167.366Z" fill="#DCE0ED" opacity="0.5"/>
		<path d="M428.562 184.297H210.017V185.027H428.562V184.297Z" fill="#DCE0ED" opacity="0.5"/>
		<path d="M428.567 185.022H209.75V151.723L229.818 161.601L250.586 164.41L268.809 158.922L290.795 141.893L301.853 135.515L309.937 133.96L317.671 134.373L330.395 140.649L347.683 151.65L361.253 153.395L372.014 149.691L394.818 131.033L406.46 126.887L418.643 128.768L428.567 134.49V185.022Z" fill="#EAA3A8" opacity="0.7"/>
		<path d="M247.89 164.42C228.187 164.42 209.974 152.384 209.75 152.228L210.29 151.421C210.572 151.611 238.598 170.132 262.414 160.852C271.106 157.473 277.278 152.209 283.275 147.124C289.519 141.811 295.418 136.789 303.454 134.611C312.702 132.117 322.753 134.378 330.409 140.659C336.951 146.03 349.985 154.659 363.755 152.078C370.773 150.765 376.692 145.641 382.956 140.221C394.949 129.818 407.39 119.08 428.849 134.499L428.28 135.287C407.424 120.319 395.299 130.81 383.579 140.955C377.213 146.468 371.197 151.65 363.92 153.035C349.756 155.685 336.449 146.891 329.776 141.412C322.364 135.326 312.614 133.148 303.698 135.554C295.866 137.674 290.069 142.622 283.893 147.863C277.852 153.001 271.603 158.319 262.769 161.761C258.018 163.565 252.972 164.466 247.89 164.42Z" fill="white"/>
		<path d="M315.179 139.273C318.171 139.273 320.597 136.851 320.597 133.863C320.597 130.874 318.171 128.452 315.179 128.452C312.187 128.452 309.762 130.874 309.762 133.863C309.762 136.851 312.187 139.273 315.179 139.273Z" fill="#FAFAFA"/>
		<path d="M511.719 391.734C518.958 391.734 524.826 390.744 524.826 389.522C524.826 388.301 518.958 387.311 511.719 387.311C504.48 387.311 498.611 388.301 498.611 389.522C498.611 390.744 504.48 391.734 511.719 391.734Z" fill="#6970BC" opacity="0.1"/>
		<path d="M83.5 419C102.002 419 117 417.433 117 415.5C117 413.567 102.002 412 83.5 412C64.9985 412 50 413.567 50 415.5C50 417.433 64.9985 419 83.5 419Z" fill="#6970BC" opacity="0.1"/>
		<path d="M483.03 416.531C493.839 416.531 502.601 415.051 502.601 413.226C502.601 411.4 493.839 409.92 483.03 409.92C472.221 409.92 463.459 411.4 463.459 413.226C463.459 415.051 472.221 416.531 483.03 416.531Z" fill="#489292"/>
		<path d="M491.12 407.825C492.014 407.098 492.664 406.116 492.985 405.01C493.228 403.892 492.751 402.555 491.685 402.147C490.488 401.69 489.208 402.516 488.234 403.357C487.261 404.198 486.156 405.146 484.885 404.971C485.538 404.38 486.026 403.63 486.302 402.794C486.578 401.958 486.633 401.066 486.462 400.202C486.408 399.844 486.257 399.508 486.024 399.23C485.358 398.52 484.155 398.822 483.357 399.381C480.826 401.16 480.12 404.592 480.106 407.684C479.853 406.571 480.067 405.409 480.062 404.281C480.057 403.153 479.741 401.85 478.777 401.252C478.179 400.933 477.508 400.776 476.83 400.795C475.691 400.752 474.421 400.864 473.647 401.695C472.674 402.73 472.932 404.461 473.769 405.584C474.606 406.707 475.891 407.431 477.064 408.219C478.007 408.781 478.811 409.546 479.42 410.46C479.489 410.588 479.546 410.723 479.59 410.863H486.725C488.32 410.051 489.798 409.029 491.12 407.825Z" fill="#489292"/>
		<path d="M40.0802 420.662C47.3193 420.662 53.1877 419.672 53.1877 418.45C53.1877 417.228 47.3193 416.238 40.0802 416.238C32.8411 416.238 26.9727 417.228 26.9727 418.45C26.9727 419.672 32.8411 420.662 40.0802 420.662Z" fill="#6970BC" opacity="0.1"/>
		<path d="M40.6793 385.637C40.6793 385.637 43.3563 389.132 39.4479 394.387C35.5395 399.642 32.3174 404.109 33.6072 407.4C33.6072 407.4 39.5063 397.605 44.3152 397.469C49.124 397.333 45.9603 391.529 40.6793 385.637Z" fill="#489292"/>
		<path d="M40.6782 385.637C40.9123 385.975 41.0975 386.345 41.2282 386.736C45.9105 392.229 48.4025 397.357 43.9003 397.484C39.7096 397.605 34.6817 405.091 33.4746 406.982C33.5143 407.129 33.5614 407.273 33.6158 407.415C33.6158 407.415 39.5149 397.62 44.3237 397.484C49.1326 397.348 45.9591 391.529 40.6782 385.637Z" fill="black" opacity="0.1"/>
		<path d="M45.6484 390.09C45.6484 391.32 45.5122 392.316 45.3418 392.316C45.1714 392.316 45.0352 391.344 45.0352 390.09C45.0352 388.836 45.2055 389.438 45.3759 389.438C45.5462 389.438 45.6484 388.86 45.6484 390.09Z" fill="#FFD037"/>
		<path d="M47.3579 391.558C46.2773 392.146 45.3331 392.501 45.2552 392.35C45.1773 392.2 45.9804 391.602 47.061 391.013C48.1415 390.425 47.718 390.853 47.7959 391.013C47.8738 391.174 48.4384 390.97 47.3579 391.558Z" fill="#FFD037"/>
		<path d="M26.5596 385.637C26.5596 385.637 23.8826 389.132 27.791 394.387C31.6994 399.642 34.9215 404.109 33.6317 407.4C33.6317 407.4 27.7375 397.605 22.9237 397.469C18.11 397.333 21.2786 391.529 26.5596 385.637Z" fill="#489292"/>
		<path d="M26.5604 385.637C26.3262 385.975 26.1411 386.345 26.0104 386.736C21.3281 392.229 18.8361 397.357 23.3383 397.484C27.529 397.605 32.5569 405.091 33.7639 406.982C33.7248 407.13 33.676 407.274 33.6179 407.415C33.6179 407.415 27.7237 397.62 22.91 397.484C18.0962 397.348 21.2794 391.529 26.5604 385.637Z" fill="black" opacity="0.1"/>
		<path d="M21.584 390.09C21.584 391.32 21.7251 392.316 21.8955 392.316C22.0658 392.316 22.2021 391.344 22.2021 390.09C22.2021 388.836 22.0318 389.438 21.8614 389.438C21.6911 389.438 21.584 388.86 21.584 390.09Z" fill="#FFD037"/>
		<path d="M19.8813 391.558C20.9619 392.146 21.9012 392.501 21.984 392.35C22.0667 392.2 21.2588 391.602 20.1782 391.013C19.0977 390.425 19.5211 390.853 19.4384 391.013C19.3557 391.174 18.8008 390.97 19.8813 391.558Z" fill="#FFD037"/>
		<path d="M22.4512 406.958C22.4512 406.958 29.9273 406.725 32.1857 405.125C34.4441 403.526 43.687 401.606 44.2467 404.177C44.8065 406.749 55.4804 416.958 47.0406 417.026C38.6007 417.094 27.4304 415.713 25.1817 414.347C22.933 412.981 22.4512 406.958 22.4512 406.958Z" fill="#AAB5BC"/>
		<path d="M47.1729 416.131C38.7331 416.199 27.5579 414.819 25.3092 413.453C23.6008 412.407 22.9145 408.669 22.6906 406.948H22.4375C22.4375 406.948 22.9242 412.967 25.1632 414.337C27.4021 415.708 38.5822 417.084 47.022 417.016C49.4556 417.016 50.2977 416.131 50.2539 414.848C49.9132 415.635 48.9835 416.117 47.1729 416.131Z" fill="black" opacity="0.2"/>
		<path d="M227.058 270.486C227.058 260.55 235.152 252.918 245.105 252.918H245.247V248.397H245.105C232.655 248.397 222.531 258.056 222.531 270.486C222.531 273.702 223.221 276.881 224.555 279.807C225.889 282.734 227.836 285.341 230.265 287.452L233.473 284.248C231.464 282.56 229.848 280.454 228.74 278.076C227.632 275.699 227.058 273.109 227.058 270.486Z" fill="#66C8D5"/>
		<path d="M245.699 248.402V252.923C248.598 252.942 251.449 253.659 254.011 255.012C256.574 256.365 258.772 258.314 260.421 260.696C262.069 263.077 263.118 265.82 263.48 268.692C263.842 271.565 263.506 274.482 262.5 277.197C261.494 279.912 259.848 282.345 257.701 284.29C255.554 286.235 252.97 287.635 250.167 288.371C247.363 289.107 244.424 289.158 241.597 288.519C238.769 287.88 236.138 286.57 233.925 284.701L230.708 287.904C233.449 290.298 236.73 291.994 240.27 292.846C243.81 293.699 247.504 293.684 251.036 292.801C254.569 291.918 257.835 290.195 260.556 287.778C263.277 285.361 265.372 282.322 266.662 278.921C267.952 275.52 268.399 271.858 267.964 268.247C267.529 264.636 266.225 261.184 264.165 258.185C262.104 255.187 259.347 252.731 256.13 251.027C252.913 249.323 249.331 248.423 245.689 248.402H245.699Z" fill="#66C8D5" opacity="0.5"/>
		<path d="M393.663 252.69C403.612 252.69 411.254 260.774 411.254 270.715C411.254 270.759 411.254 270.807 411.254 270.856H415.78C415.78 270.807 415.78 270.759 415.78 270.715C415.78 258.285 406.109 248.169 393.663 248.169C390.444 248.168 387.261 248.857 384.331 250.189C381.4 251.522 378.79 253.467 376.677 255.893L379.884 259.097C381.575 257.09 383.684 255.477 386.064 254.37C388.444 253.263 391.038 252.69 393.663 252.69Z" fill="#66C8D5" opacity="0.5"/>
		<path d="M415.776 271.308H411.249C411.23 274.203 410.512 277.05 409.158 279.61C407.803 282.169 405.851 284.365 403.466 286.011C401.082 287.657 398.336 288.705 395.46 289.067C392.584 289.429 389.663 289.093 386.945 288.088C384.226 287.083 381.79 285.439 379.843 283.295C377.895 281.151 376.494 278.57 375.757 275.77C375.02 272.97 374.969 270.034 375.609 267.211C376.248 264.387 377.56 261.759 379.432 259.549L376.239 256.345C373.842 259.083 372.144 262.36 371.29 265.895C370.437 269.431 370.452 273.12 371.336 276.648C372.22 280.177 373.945 283.439 376.365 286.156C378.785 288.874 381.828 290.966 385.233 292.255C388.638 293.543 392.305 293.989 395.921 293.554C399.536 293.12 402.993 291.818 405.995 289.76C408.997 287.702 411.456 284.949 413.162 281.736C414.868 278.523 415.769 274.945 415.79 271.308H415.776Z" fill="#66C8D5"/>
		<path d="M328.053 249.724L327.153 254.226C333.777 256.894 338.012 263.379 338.012 270.938C338.013 274.187 337.134 277.375 335.47 280.166C333.805 282.957 331.417 285.246 328.556 286.792C325.696 288.339 322.47 289.084 319.22 288.949C315.971 288.814 312.818 287.805 310.096 286.027C307.373 284.25 305.183 281.77 303.755 278.851C302.328 275.932 301.718 272.682 301.988 269.445C302.259 266.208 303.4 263.104 305.292 260.462C307.184 257.819 309.756 255.737 312.736 254.435L310.731 250.376C307.031 252.039 303.85 254.667 301.52 257.984C299.19 261.301 297.799 265.184 297.493 269.224C297.186 273.264 297.976 277.312 299.779 280.941C301.582 284.571 304.331 287.648 307.737 289.848C311.143 292.049 315.08 293.292 319.134 293.446C323.188 293.6 327.208 292.66 330.772 290.725C334.336 288.789 337.311 285.93 339.385 282.448C341.46 278.966 342.555 274.99 342.558 270.938C342.558 261.182 336.775 252.86 328.053 249.724Z" fill="#66C8D5" opacity="0.5"/>
		<path d="M320.553 252.656C322.714 252.655 324.853 253.098 326.836 253.958L327.737 249.462C325.444 248.581 323.009 248.131 320.553 248.135C317.364 248.135 314.211 248.812 311.305 250.123L313.33 254.172C315.605 253.17 318.065 252.653 320.553 252.656Z" fill="#66C8D5"/>
		<path d="M63.6217 402.641L61.7721 401.267C61.7721 401.267 60.5478 408.106 61.9139 409.131C63.2801 410.155 68.4033 411.863 68.4033 413.912C68.4033 415.962 80.0159 418.694 80.3575 415.62C80.699 412.546 79.3328 410.838 79.3328 410.838C79.3328 410.838 73.8681 405.374 73.185 404.349C72.5019 403.324 70.7941 401.275 70.7941 401.275L63.6217 402.641Z" fill="#37383B"/>
		<path d="M90.9444 317.596C90.9444 317.596 90.8931 317.896 90.8043 318.446C90.7223 318.935 90.6096 319.625 90.473 320.475C89.0385 329.229 84.8545 354.999 85.1381 355.849C85.4796 356.874 87.8704 360.631 85.1381 361.656C84.7675 361.871 84.4709 362.194 84.2876 362.581C83.7009 363.67 83.2172 364.811 82.8428 365.99C81.2137 370.717 79.4717 378.282 78.4642 383.521C78.0236 385.823 77.7231 387.675 77.6342 388.645C77.6034 388.869 77.5999 389.096 77.624 389.321C77.9655 390.687 75.5747 395.469 74.5501 396.835C73.5254 398.201 71.8177 399.567 72.1592 400.933C72.5008 402.3 63.6206 406.057 62.5959 403.666C61.5713 401.275 61.5713 399.909 61.2297 399.226C60.8882 398.543 60.5466 393.761 62.2544 393.078C63.9621 392.395 62.9375 380.441 64.6452 378.05C65.2156 377.254 66.0865 374.559 66.9985 371.318C67.3571 370.047 67.7191 368.695 68.0744 367.339C69.5157 361.782 70.7931 356.191 70.7931 356.191L70.4515 316.23L89.2366 313.839L89.7182 314.901L90.6779 317.008L90.9444 317.596Z" fill="#6A435A"/>
		<path d="M91.9688 383.173C91.9688 383.173 94.7012 380.441 96.0674 383.173C97.4336 385.905 98.7997 396.493 101.191 398.884C103.581 401.275 106.655 413.229 103.24 413.912C99.8244 414.595 96.0674 412.888 95.7258 410.838C95.3843 408.789 88.2118 398.201 88.2118 397.176C88.2118 396.152 92.9934 392.395 92.9934 392.395L91.9688 383.173Z" fill="#37383B"/>
		<path d="M49.9596 298.811C49.9596 298.811 54.3997 338.772 55.4243 342.529C56.449 346.286 61.9137 360.631 63.6215 363.022C65.3292 365.413 76.2587 384.881 77.6249 385.905C78.9911 386.93 81.7235 389.662 81.7235 389.662C81.7235 389.662 86.8467 394.786 87.5298 395.81C88.2129 396.835 94.0192 393.761 94.3607 391.712C94.7023 389.662 94.0192 386.247 93.6776 384.881C93.3361 383.515 94.3607 381.465 93.3361 380.441C92.3114 379.416 87.1882 374.293 87.1882 371.902C87.1882 369.511 78.308 355.508 74.8925 352.434C71.477 349.36 72.1601 344.237 72.1601 344.237V323.402L90.9453 317.596C90.9453 317.596 89.9206 301.202 87.5298 301.202C85.139 301.202 53.7166 295.737 49.9596 298.811Z" fill="#6A435A"/>
		<path d="M73.8669 239.382C73.8669 239.382 72.5007 244.505 70.7929 245.871C69.0852 247.237 75.233 253.044 75.233 253.044L86.8457 253.727L88.8949 247.237C88.8949 247.237 85.1379 239.723 86.1626 234.942C87.1872 230.16 73.8669 239.382 73.8669 239.382Z" fill="#8B5858"/>
		<path d="M77.6246 241.772C83.8494 241.772 88.8956 236.726 88.8956 230.501C88.8956 224.277 83.8494 219.23 77.6246 219.23C71.3997 219.23 66.3535 224.277 66.3535 230.501C66.3535 236.726 71.3997 241.772 77.6246 241.772Z" fill="#A16D6D"/>
		<path d="M69.0854 245.188C69.0854 245.188 72.1594 245.529 72.8425 246.554C73.5256 247.579 78.3072 250.653 82.0642 249.97C85.8212 249.287 88.2121 248.262 88.8952 248.603C89.5783 248.945 90.9445 256.117 90.9445 256.117L87.1875 267.047L87.8705 297.103L88.8952 305.3C88.8952 305.3 90.9445 302.568 82.7473 304.276C74.5502 305.983 63.9623 302.909 60.5468 302.568C57.1313 302.226 51.325 301.202 50.9835 299.152C50.6419 297.103 52.0081 289.589 52.0081 289.589L57.4728 266.705L60.8883 254.41L69.0854 245.188Z" fill="#A15582"/>
		<path d="M72.3161 243.646C72.3161 243.646 69.4269 242.114 68.4023 243.48C67.3777 244.846 54.3989 246.896 54.3989 247.92C54.3989 248.945 51.6665 276.61 52.3496 279.001C53.0326 281.392 50.9834 284.124 50.9834 284.124L48.5925 294.371C48.5925 294.371 42.1032 313.839 44.8355 314.522C47.5679 315.205 49.9587 314.522 50.9834 314.522C52.008 314.522 51.6665 301.543 54.3988 298.128C57.1312 294.712 60.8882 286.174 61.5713 284.466C62.2544 282.758 70.7931 259.191 70.4516 256.459C70.11 253.727 72.3161 243.646 72.3161 243.646Z" fill="#CEDDF5"/>
		<path d="M86.5042 245.188C86.5042 245.188 89.2366 245.188 89.5782 245.871C89.9197 246.554 93.3352 250.994 94.7014 252.019C96.0676 253.044 100.849 257.484 100.849 258.508C100.849 259.533 90.9444 267.047 90.9444 267.047C90.9444 267.047 86.8458 287.198 88.8951 294.029C90.9443 300.86 94.0183 317.254 92.6521 318.279C91.2859 319.304 88.212 319.645 88.212 318.279C88.212 316.913 86.1627 302.226 84.4549 299.152C82.7472 296.078 77.624 276.61 79.6733 271.145C81.7226 265.681 86.5042 245.188 86.5042 245.188Z" fill="#CEDDF5"/>
		<path d="M41.42 279.001C41.42 279.001 41.0784 289.589 44.8354 295.054C47.2723 298.707 49.3321 302.598 50.9833 306.666C50.9833 306.666 57.1311 304.959 58.1558 302.909C59.1804 300.86 65.6698 302.568 65.6698 301.885C65.6698 301.202 57.8142 297.786 57.1311 297.103C56.448 296.42 54.0572 296.42 52.691 295.054C51.3248 293.688 50.9833 290.614 50.9833 290.614L49.6171 281.733L41.42 279.001Z" fill="#8B5858"/>
		<path d="M72.1459 220.65C71.7845 220.512 71.4693 220.276 71.236 219.967C71.0028 219.659 70.861 219.291 70.8268 218.907C70.8136 218.526 70.9209 218.141 70.8877 217.761C70.8151 216.821 69.9714 216.158 69.4819 215.353C68.5027 213.741 69.0567 211.548 70.2974 210.123C71.3043 208.977 72.9434 208.179 74.3602 208.746C75.2346 209.102 75.8816 209.917 76.7927 210.171C77.7038 210.426 78.5854 210.098 79.4739 209.9C81.6122 209.435 83.8455 209.71 85.8078 210.679C86.4192 210.942 86.9478 211.366 87.3371 211.906C87.5767 212.387 87.7901 212.881 87.9762 213.385C88.7374 214.945 90.5615 215.609 92.1669 216.27C93.7724 216.932 95.5283 217.984 95.7288 219.722C95.8674 220.865 95.2537 221.942 94.8215 223.008C94.7002 223.219 94.6628 223.468 94.7168 223.706C94.886 224.195 95.5767 224.154 96.0694 224.364C96.9785 224.767 96.954 226.044 96.7839 227.002C96.5923 228.114 96.3851 229.23 96.1622 230.349C96.1019 230.768 95.9811 231.176 95.8035 231.56C95.4749 232.092 95.038 232.549 94.521 232.901L89.8496 236.564C87.7796 238.189 85.5405 240.116 85.3226 242.739C84.4678 242.919 83.6879 242.051 83.6058 241.179C83.5238 240.306 83.9156 239.475 84.2708 238.676C84.8798 237.293 85.3892 235.869 85.7952 234.414C86.054 233.695 86.1269 232.922 86.0072 232.168C85.939 231.793 85.7483 231.452 85.4651 231.197C85.1819 230.942 84.8222 230.788 84.4421 230.759C83.4424 230.779 82.7513 231.938 81.7448 232.036C80.895 232.122 80.1451 231.37 79.923 230.547C79.7721 229.706 79.8175 228.841 80.0557 228.02L80.6589 225.202C80.8777 224.18 81.0804 223.07 80.6193 222.131C80.0524 220.966 78.2973 220.142 77.0622 219.913C76.2408 219.746 75.3869 219.893 74.6693 220.325C74.3006 220.566 73.8821 220.721 73.4451 220.777C73.008 220.833 72.5639 220.79 72.1459 220.65Z" fill="#3F3D56"/>
		<path d="M70.4932 317.872C70.4932 317.872 71.6468 351.238 72.3299 352.263C73.013 353.288 72.3299 317.767 72.3299 317.767L70.4932 317.872Z" fill="black" opacity="0.1"/>
		<path d="M57.1317 247.92H54.3993C54.3993 247.92 42.7867 263.632 44.1529 264.656C45.5191 265.681 44.1529 268.413 44.1529 268.413L41.4205 273.536C41.4205 273.536 38.005 276.61 39.0296 277.293C40.0543 277.976 41.4205 280.709 41.4205 280.709C41.4205 280.709 48.2514 279.684 50.3007 283.783L54.7305 278.19L57.1317 247.92Z" fill="#CEDDF5"/>
		<path d="M88.2116 277.293C88.2116 277.293 80.6975 277.635 72.1589 272.17L63.6202 268.413C63.6202 268.413 60.1826 260.951 59.4995 263C58.8164 265.049 59.4995 266 59.4995 266C59.4995 266 48.3835 261.233 49.0008 264.5C49.1279 265.173 52.9992 268.413 52.9992 268.413C52.9992 268.413 50.6414 275.927 56.4477 276.269C62.254 276.61 63.9617 275.244 63.9617 275.244C63.9617 275.244 88.5532 295.737 92.6517 289.248C96.7503 282.758 88.2116 277.293 88.2116 277.293Z" fill="#8B5858"/>
		<path d="M97.0931 257.142L100.85 258.508V268.755L102.216 270.804C102.216 270.804 101.875 274.903 100.85 275.927C99.8255 276.952 97.7762 276.61 98.4593 279.001C98.8699 280.56 98.9857 282.182 98.8009 283.783C98.8009 283.783 92.653 291.638 92.3115 290.614C91.9699 289.589 87.1883 276.952 86.5052 276.952C85.8221 276.952 93.3361 257.142 93.3361 257.142L97.0931 257.142Z" fill="#CEDDF5"/>
		<path d="M52.179 308.886C52.179 308.886 48.6475 305.471 50.4133 305.3C52.179 305.129 58.3269 301.714 59.3515 303.422C60.3761 305.129 52.179 308.886 52.179 308.886Z" fill="#6A435A"/>
	</g>
	<defs>
		<linearGradient id="paint0_linear" gradientUnits="userSpaceOnUse" x1="96.0008" x2="445.001" y1="195" y2="195">
			<stop stopColor="#C7699D"/>
			<stop offset="1" stopColor="#E46577"/>
		</linearGradient>
		<clipPath id="clip0">
			<path d="M0 0H550V422H0V0Z" fill="white"/>
		</clipPath>
	</defs>
</svg>