<svg height="24" width="24" fill="none" viewBox="0 0 24 24" xmlns="http://www.w3.org/2000/svg">
	<g clipPath="url(#clip0)">
		<path d="M12 23.49C16.41 23.49 20 19.9 20 15.49C20 9.92 13.04 2.15 12.74 1.82L12 0.999999L11.26 1.82C10.96 2.15 4 9.91999 4 15.49C4 19.9 7.59 23.49 12 23.49ZM12 4.02C14.18 6.63 18 11.95 18 15.49C18 18.8 15.31 21.49 12 21.49C8.69 21.49 6 18.8 6 15.49C6 11.66 10.25 6.13 12 4.02Z" fill="#626973"/>
	</g>
	<defs>
		<clipPath id="clip0">
			<rect height="24" width="24" fill="white"/>
		</clipPath>
	</defs>
</svg>