<svg height="33" width="32" fill="none" viewBox="0 0 32 33" xmlns="http://www.w3.org/2000/svg">
	<g clipPath="url(#clip0)">
		<mask height="32" id="mask0" width="32" x="0" y="0" maskUnits="userSpaceOnUse">
			<path d="M16 32C24.8366 32 32 24.8365 32 16C32 7.16344 24.8366 0 16 0C7.16346 0 1.52588e-05 7.16344 1.52588e-05 16C1.52588e-05 24.8365 7.16346 32 16 32Z" fill="#63655F"/>
		</mask>
		<g mask="url(#mask0)">
			<path d="M-0.646484 34.887V29.3366C1.12401 28.2555 2.9527 27.715 4.83959 27.715C7.66993 27.715 10.6436 29.3366 13.2262 29.3366C15.8088 29.3366 18.6355 27.715 22.0731 27.715C25.5107 27.715 28.1069 29.3366 30.2491 29.3366C31.6772 29.3366 33.3975 28.7961 35.4101 27.715V33.3442C34.0034 34.3727 32.2831 34.887 30.2491 34.887C27.1981 34.887 25.8508 33.3442 22.0731 33.3442C18.2954 33.3442 16.5028 34.887 13.2262 34.887C9.98424 34.887 7.77346 33.3442 4.83959 33.3442C3.22498 33.3442 1.39629 33.8585 -0.646484 34.887Z" fill="#517BDE" fillRule="evenodd"/>
			<path d="M-0.646484 28.3302V25.094C1.12401 24.0129 2.9527 23.4723 4.83959 23.4723C7.66993 23.4723 10.6436 25.094 13.2262 25.094C15.8088 25.094 18.6355 23.4723 22.0731 23.4723C25.5107 23.4723 28.1069 25.094 30.2491 25.094C31.6772 25.094 33.3975 24.5535 35.4101 23.4723V26.7874C34.0034 27.816 32.2831 28.3302 30.2491 28.3302C27.1981 28.3302 25.8508 26.7874 22.0731 26.7874C18.2954 26.7874 16.5028 28.3302 13.2262 28.3302C9.98424 28.3302 7.77346 26.7874 4.83959 26.7874C3.22498 26.7874 1.39629 27.3017 -0.646484 28.3302Z" fill="#2763D6" fillRule="evenodd"/>
			<path d="M-0.646484 24.0876V21.6228C1.12401 20.5417 2.9527 20.0011 4.83959 20.0011C7.66993 20.0011 10.6436 21.6228 13.2262 21.6228C15.8088 21.6228 18.6355 20.0011 22.0731 20.0011C25.5107 20.0011 28.1069 21.6228 30.2491 21.6228C31.6772 21.6228 33.3975 21.0822 35.4101 20.0011V22.5448C34.0034 23.5734 32.2831 24.0876 30.2491 24.0876C27.1981 24.0876 25.8508 22.5448 22.0731 22.5448C18.2954 22.5448 16.5028 24.0876 13.2262 24.0876C9.98424 24.0876 7.77346 22.5448 4.83959 22.5448C3.22498 22.5448 1.39629 23.0591 -0.646484 24.0876Z" fill="#7527C2" fillRule="evenodd"/>
			<path d="M52.6583 18.3657V20.1343C50.0177 19.0086 48.2615 18.4619 47.3896 18.494C45.7395 18.6262 43.7585 20.1115 42.0327 20.1748C39.3628 20.1687 38.1855 18.4232 36.3987 18.5126C34.5521 18.5914 32.0058 20.0554 30.2491 20.0554C27.1981 20.0554 25.8508 18.5126 22.0731 18.5126C18.2954 18.5126 16.5028 20.0554 13.2262 20.0554C9.98424 20.0554 7.77346 18.5126 4.83959 18.5126C3.22498 18.5126 1.39629 19.0269 -0.646484 20.0554V18.3657C1.12401 17.2846 2.9527 16.7441 4.83959 16.7441C7.66993 16.7441 10.6436 18.3657 13.2262 18.3657C15.8088 18.3657 18.6355 16.7441 22.0731 16.7441C25.5107 16.7441 28.1069 18.3657 30.2491 18.3657C32.0058 18.3657 34.1266 16.8974 36.5649 16.7779C38.9859 16.8544 39.9363 18.5261 42.0327 18.3657C43.2441 18.2731 45.0297 16.9299 47.3896 16.7441C48.4019 16.6643 50.1581 17.2049 52.6583 18.3657Z" fill="#B023AC" fillRule="evenodd"/>
			<path d="M52.6583 14.893V16.1605C50.0177 15.0348 48.2615 14.4881 47.3896 14.5202C45.7395 14.6524 43.7585 16.1377 42.0327 16.201C39.3628 16.1949 38.1855 14.4494 36.3987 14.5388C34.5521 14.6176 32.0058 16.0816 30.2491 16.0816C27.1981 16.0816 25.8508 14.5388 22.0731 14.5388C18.2954 14.5388 16.5028 16.0816 13.2262 16.0816C9.98424 16.0816 7.77346 14.5388 4.83959 14.5388C3.22498 14.5388 1.39629 15.0531 -0.646484 16.0816V14.893C1.12401 13.8118 2.9527 13.2713 4.83959 13.2713C7.66993 13.2713 10.6436 14.893 13.2262 14.893C15.8088 14.893 18.6355 13.2713 22.0731 13.2713C25.5107 13.2713 28.1069 14.893 30.2491 14.893C32.0058 14.893 33.0453 13.5582 36.5649 13.3051C37.0537 13.27 37.5697 13.4311 38.113 13.6631C38.6874 13.8643 39.1824 14.1379 39.6752 14.3829C40.4182 14.7042 41.2041 14.9563 42.0327 14.893C43.2441 14.8003 45.0297 13.4571 47.3896 13.2713C48.4019 13.1916 50.1581 13.7321 52.6583 14.893Z" fill="#CA4ABE" fillRule="evenodd"/>
			<path d="M-0.646484 12.9025C1.39629 11.874 3.22498 11.3598 4.83959 11.3598C7.77346 11.3598 9.98424 12.9025 13.2262 12.9025C16.5028 12.9025 18.2954 11.3598 22.0731 11.3598C25.8508 11.3598 27.1981 12.9025 30.2491 12.9025C32.0058 12.9025 34.5521 11.4385 36.3987 11.3598C38.1855 11.2704 39.3628 13.0159 42.0327 13.022C43.7585 12.9587 45.7395 11.4734 47.3896 11.3411C48.2615 11.309 50.0177 11.8558 52.6583 12.9814V12.2347C50.1581 11.0739 48.4019 10.5333 47.3896 10.6131C45.0297 10.7989 43.2441 12.1421 42.0327 12.2347C39.9363 12.3951 38.9859 10.7234 36.5649 10.6469C34.1266 10.7664 32.0058 12.2347 30.2491 12.2347C28.1069 12.2347 25.5107 10.6131 22.0731 10.6131C18.6355 10.6131 15.8088 12.2347 13.2262 12.2347C10.6436 12.2347 7.66993 10.6131 4.83959 10.6131C2.9527 10.6131 1.12401 11.1536 -0.646484 12.2347V12.9025Z" fill="#CA4ABE" fillRule="evenodd"/>
		</g>
	</g>
	<defs>
		<clipPath id="clip0">
			<rect height="32.6" width="32" fill="white"/>
		</clipPath>
	</defs>
</svg>