<svg height="23" width="32" fill="none" viewBox="0 0 32 23" xmlns="http://www.w3.org/2000/svg">
	<g clipPath="url(#clip0)">
		<mask height="33" id="mask0" width="32" x="0" y="-10" maskUnits="userSpaceOnUse">
			<path d="M16 22.4C24.8366 22.4 32 15.2366 32 6.4C32 -2.43656 24.8366 -9.6 16 -9.6C7.16344 -9.6 0 -2.43656 0 6.4C0 15.2366 7.16344 22.4 16 22.4Z" fill="#626973"/>
		</mask>
		<g mask="url(#mask0)">
			<path d="M-0.646584 24.287V18.7366C1.12391 17.6555 2.9526 17.115 4.83949 17.115C7.66983 17.115 10.6435 18.7366 13.2261 18.7366C15.8087 18.7366 18.6354 17.115 22.073 17.115C25.5106 17.115 28.1068 18.7366 30.249 18.7366C31.6771 18.7366 33.3975 18.1961 35.41 17.115V22.7442C34.0033 23.7727 32.283 24.287 30.249 24.287C27.198 24.287 25.8507 22.7442 22.073 22.7442C18.2953 22.7442 16.5027 24.287 13.2261 24.287C9.98415 24.287 7.77337 22.7442 4.83949 22.7442C3.22488 22.7442 1.39619 23.2585 -0.646584 24.287Z" fill="#626973" fillRule="evenodd"/>
			<path d="M-0.646584 17.7302V14.494C1.12391 13.4129 2.9526 12.8723 4.83949 12.8723C7.66983 12.8723 10.6435 14.494 13.2261 14.494C15.8087 14.494 18.6354 12.8723 22.073 12.8723C25.5106 12.8723 28.1068 14.494 30.249 14.494C31.6771 14.494 33.3975 13.9535 35.41 12.8723V16.1874C34.0033 17.216 32.283 17.7302 30.249 17.7302C27.198 17.7302 25.8507 16.1874 22.073 16.1874C18.2953 16.1874 16.5027 17.7302 13.2261 17.7302C9.98415 17.7302 7.77337 16.1874 4.83949 16.1874C3.22488 16.1874 1.39619 16.7017 -0.646584 17.7302Z" fill="#626973" fillRule="evenodd"/>
			<path d="M-0.646584 13.4876V11.0228C1.12391 9.94167 2.9526 9.40111 4.83949 9.40111C7.66983 9.40111 10.6435 11.0228 13.2261 11.0228C15.8087 11.0228 18.6354 9.40111 22.073 9.40111C25.5106 9.40111 28.1068 11.0228 30.249 11.0228C31.6771 11.0228 33.3975 10.4822 35.41 9.40111V11.9448C34.0033 12.9734 32.283 13.4876 30.249 13.4876C27.198 13.4876 25.8507 11.9448 22.073 11.9448C18.2953 11.9448 16.5027 13.4876 13.2261 13.4876C9.98415 13.4876 7.77337 11.9448 4.83949 11.9448C3.22488 11.9448 1.39619 12.4591 -0.646584 13.4876Z" fill="#626973" fillRule="evenodd"/>
			<path d="M52.6582 7.76573V9.53427C50.0176 8.40861 48.2614 7.86185 47.3895 7.89397C45.7394 8.02623 43.7584 9.51148 42.0326 9.57479C39.3627 9.5687 38.1855 7.82323 36.3986 7.9126C34.5521 7.99137 32.0057 9.45536 30.249 9.45536C27.198 9.45536 25.8507 7.9126 22.073 7.9126C18.2953 7.9126 16.5027 9.45536 13.2261 9.45536C9.98415 9.45536 7.77337 7.9126 4.83949 7.9126C3.22488 7.9126 1.39619 8.42685 -0.646584 9.45536V7.76573C1.12391 6.68461 2.9526 6.14405 4.83949 6.14405C7.66983 6.14405 10.6435 7.76573 13.2261 7.76573C15.8087 7.76573 18.6354 6.14405 22.073 6.14405C25.5106 6.14405 28.1068 7.76573 30.249 7.76573C32.0057 7.76573 34.1265 6.29741 36.5648 6.17788C38.9858 6.25439 39.9362 7.9261 42.0326 7.76573C43.244 7.67306 45.0296 6.32992 47.3895 6.14405C48.4018 6.06433 50.1581 6.60488 52.6582 7.76573Z" fill="#626973" fillRule="evenodd"/>
			<path d="M52.6582 4.29295V5.56049C50.0176 4.43482 48.2614 3.88805 47.3895 3.92017C45.7394 4.05243 43.7584 5.5377 42.0326 5.601C39.3627 5.59491 38.1855 3.84944 36.3986 3.9388C34.5521 4.01757 32.0057 5.48158 30.249 5.48158C27.198 5.48158 25.8507 3.9388 22.073 3.9388C18.2953 3.9388 16.5027 5.48158 13.2261 5.48158C9.98415 5.48158 7.77337 3.9388 4.83949 3.9388C3.22488 3.9388 1.39619 4.45306 -0.646584 5.48158V4.29295C1.12391 3.21183 2.9526 2.67127 4.83949 2.67127C7.66983 2.67127 10.6435 4.29295 13.2261 4.29295C15.8087 4.29295 18.6354 2.67127 22.073 2.67127C25.5106 2.67127 28.1068 4.29295 30.249 4.29295C32.0057 4.29295 33.0453 2.95818 36.5648 2.7051C37.0536 2.66995 37.5696 2.8311 38.1129 3.0631C38.6873 3.26429 39.1823 3.53791 39.6751 3.78284C40.4182 4.10416 41.204 4.35634 42.0326 4.29295C43.244 4.20029 45.0296 2.85713 47.3895 2.67127C48.4018 2.59154 50.1581 3.1321 52.6582 4.29295Z" fill="#626973" fillRule="evenodd"/>
			<path d="M-0.646584 2.30252C1.39619 1.27401 3.22488 0.759755 4.83949 0.759755C7.77337 0.759755 9.98415 2.30252 13.2261 2.30252C16.5027 2.30252 18.2953 0.759755 22.073 0.759755C25.8507 0.759755 27.198 2.30252 30.249 2.30252C32.0057 2.30252 34.5521 0.838525 36.3986 0.759755C38.1855 0.670389 39.3627 2.41586 42.0326 2.42195C43.7584 2.35864 45.7394 0.873385 47.3895 0.741126C48.2614 0.709005 50.0176 1.25577 52.6582 2.38143V1.63472C50.1581 0.473873 48.4018 -0.0666867 47.3895 0.0130417C45.0296 0.198904 43.244 1.54205 42.0326 1.63472C39.9362 1.79509 38.9858 0.123374 36.5648 0.0468695C34.1265 0.166394 32.0057 1.63472 30.249 1.63472C28.1068 1.63472 25.5106 0.0130417 22.073 0.0130417C18.6354 0.0130417 15.8087 1.63472 13.2261 1.63472C10.6435 1.63472 7.66983 0.0130417 4.83949 0.0130417C2.9526 0.0130417 1.12391 0.553601 -0.646584 1.63472V2.30252Z" fill="#626973" fillRule="evenodd"/>
		</g>
	</g>
	<defs>
		<clipPath id="clip0">
			<path d="M0 0H32V22.4H0V0Z" fill="white"/>
		</clipPath>
	</defs>
</svg>