<svg height="33" width="102" fill="none" viewBox="0 0 102 33" xmlns="http://www.w3.org/2000/svg">
	<path d="M53.4623 27.8928H49.5007L43.2717 19.646V27.8928H39.8333V10.2929H43.2717V18.062L49.2515 10.2929H53.2132L46.7599 18.8414L53.4623 27.8928ZM56.6018 13.8129C56.0702 13.8129 55.6093 13.6159 55.2189 13.222C54.8286 12.8281 54.6334 12.363 54.6334 11.8266C54.6334 11.2902 54.8286 10.8209 55.2189 10.4186C55.6093 10.0163 56.0702 9.81514 56.6018 9.81514C57.1499 9.81514 57.6192 10.0163 58.0095 10.4186C58.3999 10.8209 58.595 11.2902 58.595 11.8266C58.595 12.363 58.3999 12.8281 58.0095 13.222C57.6192 13.6159 57.1499 13.8129 56.6018 13.8129ZM55.0071 27.8928V15.3214H58.2213V27.8928H55.0071ZM64.3756 17.4837C64.6746 16.6791 65.1687 16.0757 65.8581 15.6734C66.5474 15.2711 67.3157 15.07 68.1628 15.07V18.6906C67.1828 18.5732 66.3066 18.7744 65.5342 19.294C64.7618 19.8136 64.3756 20.6768 64.3756 21.8837V27.8928H61.1614V15.3214H64.3756V17.4837ZM77.2821 14.9694C78.9598 14.9694 80.3924 15.6106 81.5801 16.8929C82.7678 18.1751 83.3616 19.7466 83.3616 21.6071C83.3616 23.4677 82.7678 25.0391 81.5801 26.3214C80.3924 27.6037 78.9598 28.2448 77.2821 28.2448C75.5379 28.2448 74.1925 27.633 73.2457 26.4094V27.8928H70.0315V10.2929H73.2457V16.8049C74.1925 15.5812 75.5379 14.9694 77.2821 14.9694ZM74.2174 24.1717C74.8652 24.8254 75.6874 25.1523 76.6841 25.1523C77.6807 25.1523 78.5071 24.8212 79.1632 24.1591C79.8194 23.497 80.1474 22.6464 80.1474 21.6071C80.1474 20.5679 79.8194 19.7172 79.1632 19.0551C78.5071 18.393 77.6807 18.062 76.6841 18.062C75.6874 18.062 74.8652 18.393 74.2174 19.0551C73.5696 19.7172 73.2457 20.5679 73.2457 21.6071C73.2457 22.6464 73.5696 23.5012 74.2174 24.1717ZM93.2532 15.3214H96.6917L92.1569 27.8928C91.5091 29.7031 90.6495 31.0148 89.5781 31.8277C88.5067 32.6407 87.1737 33.0052 85.5791 32.9214V29.9043C86.4429 29.921 87.128 29.7367 87.6347 29.3511C88.1413 28.9656 88.5441 28.3454 88.8431 27.4906L83.7353 15.3214H87.2485L90.4876 23.7694L93.2532 15.3214Z" fill="#19191B" fillRule="evenodd"/>
	<mask height="33" id="mask0" width="32" x="0" y="0" maskUnits="userSpaceOnUse">
		<path d="M16 32.4C24.8366 32.4 32 25.2366 32 16.4C32 7.56344 24.8366 0.400001 16 0.400001C7.16344 0.400001 0 7.56344 0 16.4C0 25.2366 7.16344 32.4 16 32.4Z" fill="#63655F"/>
	</mask>
	<mask height="33" id="mask1" width="32" x="0" y="0" maskUnits="userSpaceOnUse">
		<path d="M16 32.4C24.8366 32.4 32 25.2366 32 16.4C32 7.56344 24.8366 0.400001 16 0.400001C7.16347 0.400001 3.05176e-05 7.56344 3.05176e-05 16.4C3.05176e-05 25.2366 7.16347 32.4 16 32.4Z" fill="#63655F"/>
	</mask>
	<g mask="url(#mask0)"/>
	<g mask="url(#mask1)">
		<path d="M-0.646545 34.287V28.7366C1.12395 27.6555 2.95264 27.1149 4.83953 27.1149C7.66987 27.1149 10.6436 28.7366 13.2262 28.7366C15.8087 28.7366 18.6354 27.1149 22.073 27.1149C25.5107 27.1149 28.1068 28.7366 30.249 28.7366C31.6772 28.7366 33.3975 28.1961 35.41 27.1149V32.7442C34.0034 33.7727 32.283 34.287 30.249 34.287C27.198 34.287 25.8507 32.7442 22.073 32.7442C18.2954 32.7442 16.5027 34.287 13.2262 34.287C9.98418 34.287 7.7734 32.7442 4.83953 32.7442C3.22492 32.7442 1.39623 33.2585 -0.646545 34.287Z" fill="#19191B" fillRule="evenodd"/>
		<path d="M-0.646545 27.7302V24.494C1.12395 23.4129 2.95264 22.8723 4.83953 22.8723C7.66987 22.8723 10.6436 24.494 13.2262 24.494C15.8087 24.494 18.6354 22.8723 22.073 22.8723C25.5107 22.8723 28.1068 24.494 30.249 24.494C31.6772 24.494 33.3975 23.9535 35.41 22.8723V26.1874C34.0034 27.216 32.283 27.7302 30.249 27.7302C27.198 27.7302 25.8507 26.1874 22.073 26.1874C18.2954 26.1874 16.5027 27.7302 13.2262 27.7302C9.98418 27.7302 7.7734 26.1874 4.83953 26.1874C3.22492 26.1874 1.39623 26.7017 -0.646545 27.7302Z" fill="#19191B" fillRule="evenodd"/>
		<path d="M-0.646545 23.4876V21.0228C1.12395 19.9417 2.95264 19.4011 4.83953 19.4011C7.66987 19.4011 10.6436 21.0228 13.2262 21.0228C15.8087 21.0228 18.6354 19.4011 22.073 19.4011C25.5107 19.4011 28.1068 21.0228 30.249 21.0228C31.6772 21.0228 33.3975 20.4822 35.41 19.4011V21.9448C34.0034 22.9734 32.283 23.4876 30.249 23.4876C27.198 23.4876 25.8507 21.9448 22.073 21.9448C18.2954 21.9448 16.5027 23.4876 13.2262 23.4876C9.98418 23.4876 7.7734 21.9448 4.83953 21.9448C3.22492 21.9448 1.39623 22.4591 -0.646545 23.4876Z" fill="#19191B" fillRule="evenodd"/>
		<path d="M52.6583 17.7657V19.5343C50.0177 18.4086 48.2614 17.8618 47.3896 17.894C45.7394 18.0262 43.7584 19.5115 42.0327 19.5748C39.3628 19.5687 38.1855 17.8232 36.3986 17.9126C34.5521 17.9914 32.0058 19.4554 30.249 19.4554C27.198 19.4554 25.8507 17.9126 22.073 17.9126C18.2954 17.9126 16.5027 19.4554 13.2262 19.4554C9.98418 19.4554 7.7734 17.9126 4.83953 17.9126C3.22492 17.9126 1.39623 18.4268 -0.646545 19.4554V17.7657C1.12395 16.6846 2.95264 16.1441 4.83953 16.1441C7.66987 16.1441 10.6436 17.7657 13.2262 17.7657C15.8087 17.7657 18.6354 16.1441 22.073 16.1441C25.5107 16.1441 28.1068 17.7657 30.249 17.7657C32.0058 17.7657 34.1266 16.2974 36.5649 16.1779C38.9858 16.2544 39.9362 17.9261 42.0327 17.7657C43.244 17.6731 45.0297 16.3299 47.3896 16.1441C48.4019 16.0643 50.1581 16.6049 52.6583 17.7657Z" fill="#19191B" fillRule="evenodd"/>
		<path d="M52.6583 14.293V15.5605C50.0177 14.4348 48.2614 13.8881 47.3896 13.9202C45.7394 14.0524 43.7584 15.5377 42.0327 15.601C39.3628 15.5949 38.1855 13.8494 36.3986 13.9388C34.5521 14.0176 32.0058 15.4816 30.249 15.4816C27.198 15.4816 25.8507 13.9388 22.073 13.9388C18.2954 13.9388 16.5027 15.4816 13.2262 15.4816C9.98418 15.4816 7.7734 13.9388 4.83953 13.9388C3.22492 13.9388 1.39623 14.4531 -0.646545 15.4816V14.293C1.12395 13.2118 2.95264 12.6713 4.83953 12.6713C7.66987 12.6713 10.6436 14.293 13.2262 14.293C15.8087 14.293 18.6354 12.6713 22.073 12.6713C25.5107 12.6713 28.1068 14.293 30.249 14.293C32.0058 14.293 33.0453 12.9582 36.5649 12.7051C37.0536 12.67 37.5697 12.8311 38.113 13.0631C38.6874 13.2643 39.1824 13.5379 39.6751 13.7828C40.4182 14.1042 41.204 14.3563 42.0327 14.293C43.244 14.2003 45.0297 12.8571 47.3896 12.6713C48.4019 12.5915 50.1581 13.1321 52.6583 14.293Z" fill="#19191B" fillRule="evenodd"/>
		<path d="M-0.646545 12.3025C1.39623 11.274 3.22492 10.7598 4.83953 10.7598C7.7734 10.7598 9.98418 12.3025 13.2262 12.3025C16.5027 12.3025 18.2954 10.7598 22.073 10.7598C25.8507 10.7598 27.198 12.3025 30.249 12.3025C32.0058 12.3025 34.5521 10.8385 36.3986 10.7598C38.1855 10.6704 39.3628 12.4159 42.0327 12.4219C43.7584 12.3586 45.7394 10.8734 47.3896 10.7411C48.2614 10.709 50.0177 11.2558 52.6583 12.3814V11.6347C50.1581 10.4739 48.4019 9.93331 47.3896 10.013C45.0297 10.1989 43.244 11.5421 42.0327 11.6347C39.9362 11.7951 38.9858 10.1234 36.5649 10.0469C34.1266 10.1664 32.0058 11.6347 30.249 11.6347C28.1068 11.6347 25.5107 10.013 22.073 10.013C18.6354 10.013 15.8087 11.6347 13.2262 11.6347C10.6436 11.6347 7.66987 10.013 4.83953 10.013C2.95264 10.013 1.12395 10.5536 -0.646545 11.6347V12.3025Z" fill="#19191B" fillRule="evenodd"/>
	</g>
</svg>