<svg height="33" width="32" fill="none" viewBox="0 0 32 33" xmlns="http://www.w3.org/2000/svg">
	<mask height="32" id="mask0" width="32" x="0" y="0" maskUnits="userSpaceOnUse">
		<path d="M16 32C24.8366 32 32 24.8365 32 16C32 7.16344 24.8366 0 16 0C7.16346 0 1.52588e-05 7.16344 1.52588e-05 16C1.52588e-05 24.8365 7.16346 32 16 32Z" fill="#63655F"/>
	</mask>
	<g mask="url(#mask0)">
		<path d="M-0.646568 33.887V28.3366C1.12392 27.2555 2.95262 26.7149 4.83951 26.7149C7.66985 26.7149 10.6436 28.3366 13.2261 28.3366C15.8087 28.3366 18.6354 26.7149 22.073 26.7149C25.5106 26.7149 28.1068 28.3366 30.249 28.3366C31.6771 28.3366 33.3975 27.7961 35.41 26.7149V32.3442C34.0033 33.3727 32.283 33.887 30.249 33.887C27.198 33.887 25.8507 32.3442 22.073 32.3442C18.2953 32.3442 16.5027 33.887 13.2261 33.887C9.98416 33.887 7.77338 32.3442 4.83951 32.3442C3.2249 32.3442 1.3962 32.8585 -0.646568 33.887Z" fill="#19191B" fillRule="evenodd"/>
		<path d="M-0.646568 27.3302V24.094C1.12392 23.0129 2.95262 22.4723 4.83951 22.4723C7.66985 22.4723 10.6436 24.094 13.2261 24.094C15.8087 24.094 18.6354 22.4723 22.073 22.4723C25.5106 22.4723 28.1068 24.094 30.249 24.094C31.6771 24.094 33.3975 23.5534 35.41 22.4723V25.7874C34.0033 26.8159 32.283 27.3302 30.249 27.3302C27.198 27.3302 25.8507 25.7874 22.073 25.7874C18.2953 25.7874 16.5027 27.3302 13.2261 27.3302C9.98416 27.3302 7.77338 25.7874 4.83951 25.7874C3.2249 25.7874 1.3962 26.3017 -0.646568 27.3302Z" fill="#19191B" fillRule="evenodd"/>
		<path d="M-0.646568 23.0876V20.6228C1.12392 19.5417 2.95262 19.0011 4.83951 19.0011C7.66985 19.0011 10.6436 20.6228 13.2261 20.6228C15.8087 20.6228 18.6354 19.0011 22.073 19.0011C25.5106 19.0011 28.1068 20.6228 30.249 20.6228C31.6771 20.6228 33.3975 20.0822 35.41 19.0011V21.5448C34.0033 22.5733 32.283 23.0876 30.249 23.0876C27.198 23.0876 25.8507 21.5448 22.073 21.5448C18.2953 21.5448 16.5027 23.0876 13.2261 23.0876C9.98416 23.0876 7.77338 21.5448 4.83951 21.5448C3.2249 21.5448 1.3962 22.0591 -0.646568 23.0876Z" fill="#19191B" fillRule="evenodd"/>
		<path d="M52.6582 17.3657V19.1343C50.0176 18.0086 48.2614 17.4618 47.3895 17.494C45.7394 17.6262 43.7584 19.1115 42.0326 19.1748C39.3627 19.1687 38.1854 17.4232 36.3986 17.5126C34.5521 17.5914 32.0057 19.0554 30.249 19.0554C27.198 19.0554 25.8507 17.5126 22.073 17.5126C18.2953 17.5126 16.5027 19.0554 13.2261 19.0554C9.98416 19.0554 7.77338 17.5126 4.83951 17.5126C3.2249 17.5126 1.3962 18.0268 -0.646568 19.0554V17.3657C1.12392 16.2846 2.95262 15.744 4.83951 15.744C7.66985 15.744 10.6436 17.3657 13.2261 17.3657C15.8087 17.3657 18.6354 15.744 22.073 15.744C25.5106 15.744 28.1068 17.3657 30.249 17.3657C32.0057 17.3657 34.1265 15.8974 36.5648 15.7779C38.9858 15.8544 39.9362 17.5261 42.0326 17.3657C43.244 17.2731 45.0296 15.9299 47.3895 15.744C48.4018 15.6643 50.1581 16.2049 52.6582 17.3657Z" fill="#19191B" fillRule="evenodd"/>
		<path d="M52.6582 13.8929V15.1605C50.0176 14.0348 48.2614 13.488 47.3895 13.5202C45.7394 13.6524 43.7584 15.1377 42.0326 15.201C39.3627 15.1949 38.1854 13.4494 36.3986 13.5388C34.5521 13.6176 32.0057 15.0816 30.249 15.0816C27.198 15.0816 25.8507 13.5388 22.073 13.5388C18.2953 13.5388 16.5027 15.0816 13.2261 15.0816C9.98416 15.0816 7.77338 13.5388 4.83951 13.5388C3.2249 13.5388 1.3962 14.0531 -0.646568 15.0816V13.8929C1.12392 12.8118 2.95262 12.2713 4.83951 12.2713C7.66985 12.2713 10.6436 13.8929 13.2261 13.8929C15.8087 13.8929 18.6354 12.2713 22.073 12.2713C25.5106 12.2713 28.1068 13.8929 30.249 13.8929C32.0057 13.8929 33.0453 12.5582 36.5648 12.3051C37.0536 12.27 37.5696 12.4311 38.1129 12.6631C38.6873 12.8643 39.1823 13.1379 39.6751 13.3828C40.4182 13.7042 41.204 13.9563 42.0326 13.8929C43.244 13.8003 45.0296 12.4571 47.3895 12.2713C48.4018 12.1915 50.1581 12.7321 52.6582 13.8929Z" fill="#19191B" fillRule="evenodd"/>
		<path d="M-0.646568 11.9025C1.3962 10.874 3.2249 10.3598 4.83951 10.3598C7.77338 10.3598 9.98416 11.9025 13.2261 11.9025C16.5027 11.9025 18.2953 10.3598 22.073 10.3598C25.8507 10.3598 27.198 11.9025 30.249 11.9025C32.0057 11.9025 34.5521 10.4385 36.3986 10.3598C38.1854 10.2704 39.3627 12.0159 42.0326 12.0219C43.7584 11.9586 45.7394 10.4734 47.3895 10.3411C48.2614 10.309 50.0176 10.8558 52.6582 11.9814V11.2347C50.1581 10.0739 48.4018 9.53331 47.3895 9.61304C45.0296 9.7989 43.244 11.1421 42.0326 11.2347C39.9362 11.3951 38.9858 9.72337 36.5648 9.64687C34.1265 9.76639 32.0057 11.2347 30.249 11.2347C28.1068 11.2347 25.5106 9.61304 22.073 9.61304C18.6354 9.61304 15.8087 11.2347 13.2261 11.2347C10.6436 11.2347 7.66985 9.61304 4.83951 9.61304C2.95262 9.61304 1.12392 10.1536 -0.646568 11.2347V11.9025Z" fill="#19191B" fillRule="evenodd"/>
	</g>
</svg>