<svg height="33" width="102" fill="none" viewBox="0 0 102 33" xmlns="http://www.w3.org/2000/svg">
	<path d="M53.4623 27.8929H49.5007L43.2717 19.646V27.8929H39.8333V10.2929H43.2717V18.062L49.2515 10.2929H53.2132L46.7599 18.8414L53.4623 27.8929ZM56.6018 13.8129C56.0702 13.8129 55.6093 13.6159 55.2189 13.222C54.8286 12.8281 54.6334 12.363 54.6334 11.8266C54.6334 11.2902 54.8286 10.8209 55.2189 10.4186C55.6093 10.0163 56.0702 9.81514 56.6018 9.81514C57.1499 9.81514 57.6192 10.0163 58.0095 10.4186C58.3999 10.8209 58.595 11.2902 58.595 11.8266C58.595 12.363 58.3999 12.8281 58.0095 13.222C57.6192 13.6159 57.1499 13.8129 56.6018 13.8129ZM55.0071 27.8929V15.3214H58.2213V27.8929H55.0071ZM64.3756 17.4837C64.6746 16.6791 65.1687 16.0757 65.8581 15.6734C66.5474 15.2711 67.3157 15.07 68.1628 15.07V18.6906C67.1828 18.5732 66.3066 18.7744 65.5342 19.294C64.7618 19.8136 64.3756 20.6768 64.3756 21.8837V27.8929H61.1614V15.3214H64.3756V17.4837ZM77.2821 14.9694C78.9598 14.9694 80.3924 15.6106 81.5801 16.8929C82.7678 18.1751 83.3616 19.7466 83.3616 21.6071C83.3616 23.4677 82.7678 25.0391 81.5801 26.3214C80.3924 27.6037 78.9598 28.2449 77.2821 28.2449C75.5379 28.2449 74.1925 27.6331 73.2457 26.4094V27.8929H70.0315V10.2929H73.2457V16.8049C74.1925 15.5812 75.5379 14.9694 77.2821 14.9694ZM74.2174 24.1717C74.8652 24.8254 75.6874 25.1523 76.6841 25.1523C77.6807 25.1523 78.5071 24.8212 79.1632 24.1591C79.8194 23.497 80.1474 22.6464 80.1474 21.6071C80.1474 20.5679 79.8194 19.7172 79.1632 19.0551C78.5071 18.393 77.6807 18.062 76.6841 18.062C75.6874 18.062 74.8652 18.393 74.2174 19.0551C73.5696 19.7172 73.2457 20.5679 73.2457 21.6071C73.2457 22.6464 73.5696 23.5012 74.2174 24.1717ZM93.2532 15.3214H96.6917L92.1569 27.8929C91.5091 29.7031 90.6495 31.0148 89.5781 31.8277C88.5067 32.6407 87.1737 33.0052 85.5791 32.9214V29.9043C86.4429 29.921 87.128 29.7367 87.6347 29.3511C88.1413 28.9656 88.5441 28.3454 88.8431 27.4906L83.7353 15.3214H87.2485L90.4876 23.7694L93.2532 15.3214Z" fill="#19191B" fillRule="evenodd"/>
	<mask height="33" id="mask0" width="32" x="0" y="0" maskUnits="userSpaceOnUse">
		<path d="M16 32.4C24.8366 32.4 32 25.2366 32 16.4C32 7.56344 24.8366 0.400001 16 0.400001C7.16344 0.400001 0 7.56344 0 16.4C0 25.2366 7.16344 32.4 16 32.4Z" fill="#63655F"/>
	</mask>
	<g mask="url(#mask0)"/>
	<g clipPath="url(#clip0)">
		<mask height="32" id="mask1" width="32" x="0" y="0" maskUnits="userSpaceOnUse">
			<path d="M16 32C24.8366 32 32 24.8366 32 16C32 7.16344 24.8366 0 16 0C7.16349 0 4.57764e-05 7.16344 4.57764e-05 16C4.57764e-05 24.8366 7.16349 32 16 32Z" fill="#63655F"/>
		</mask>
		<g mask="url(#mask1)">
			<path d="M-0.646454 34.887V29.3366C1.12404 28.2555 2.95273 27.715 4.83962 27.715C7.66996 27.715 10.6437 29.3366 13.2262 29.3366C15.8088 29.3366 18.6355 27.715 22.0731 27.715C25.5107 27.715 28.1069 29.3366 30.2491 29.3366C31.6773 29.3366 33.3976 28.7961 35.4101 27.715V33.3442C34.0035 34.3727 32.2831 34.887 30.2491 34.887C27.1981 34.887 25.8508 33.3442 22.0731 33.3442C18.2954 33.3442 16.5028 34.887 13.2262 34.887C9.98428 34.887 7.7735 33.3442 4.83962 33.3442C3.22501 33.3442 1.39632 33.8585 -0.646454 34.887Z" fill="#517BDE" fillRule="evenodd"/>
			<path d="M-0.646454 28.3302V25.094C1.12404 24.0129 2.95273 23.4723 4.83962 23.4723C7.66996 23.4723 10.6437 25.094 13.2262 25.094C15.8088 25.094 18.6355 23.4723 22.0731 23.4723C25.5107 23.4723 28.1069 25.094 30.2491 25.094C31.6773 25.094 33.3976 24.5535 35.4101 23.4723V26.7875C34.0035 27.816 32.2831 28.3302 30.2491 28.3302C27.1981 28.3302 25.8508 26.7875 22.0731 26.7875C18.2954 26.7875 16.5028 28.3302 13.2262 28.3302C9.98428 28.3302 7.7735 26.7875 4.83962 26.7875C3.22501 26.7875 1.39632 27.3017 -0.646454 28.3302Z" fill="#2763D6" fillRule="evenodd"/>
			<path d="M-0.646454 24.0876V21.6228C1.12404 20.5417 2.95273 20.0011 4.83962 20.0011C7.66996 20.0011 10.6437 21.6228 13.2262 21.6228C15.8088 21.6228 18.6355 20.0011 22.0731 20.0011C25.5107 20.0011 28.1069 21.6228 30.2491 21.6228C31.6773 21.6228 33.3976 21.0822 35.4101 20.0011V22.5449C34.0035 23.5734 32.2831 24.0876 30.2491 24.0876C27.1981 24.0876 25.8508 22.5449 22.0731 22.5449C18.2954 22.5449 16.5028 24.0876 13.2262 24.0876C9.98428 24.0876 7.7735 22.5449 4.83962 22.5449C3.22501 22.5449 1.39632 23.0591 -0.646454 24.0876Z" fill="#7527C2" fillRule="evenodd"/>
			<path d="M52.6583 18.3657V20.1343C50.0178 19.0086 48.2615 18.4619 47.3896 18.494C45.7395 18.6262 43.7585 20.1115 42.0328 20.1748C39.3629 20.1687 38.1856 18.4232 36.3987 18.5126C34.5522 18.5914 32.0059 20.0554 30.2491 20.0554C27.1981 20.0554 25.8508 18.5126 22.0731 18.5126C18.2954 18.5126 16.5028 20.0554 13.2262 20.0554C9.98428 20.0554 7.7735 18.5126 4.83962 18.5126C3.22501 18.5126 1.39632 19.0269 -0.646454 20.0554V18.3657C1.12404 17.2846 2.95273 16.7441 4.83962 16.7441C7.66996 16.7441 10.6437 18.3657 13.2262 18.3657C15.8088 18.3657 18.6355 16.7441 22.0731 16.7441C25.5107 16.7441 28.1069 18.3657 30.2491 18.3657C32.0059 18.3657 34.1267 16.8974 36.565 16.7779C38.9859 16.8544 39.9363 18.5261 42.0328 18.3657C43.2441 18.2731 45.0297 16.9299 47.3896 16.7441C48.402 16.6643 50.1582 17.2049 52.6583 18.3657Z" fill="#B023AC" fillRule="evenodd"/>
			<path d="M52.6583 14.893V16.1605C50.0178 15.0348 48.2615 14.4881 47.3896 14.5202C45.7395 14.6524 43.7585 16.1377 42.0328 16.201C39.3629 16.1949 38.1856 14.4495 36.3987 14.5388C34.5522 14.6176 32.0059 16.0816 30.2491 16.0816C27.1981 16.0816 25.8508 14.5388 22.0731 14.5388C18.2954 14.5388 16.5028 16.0816 13.2262 16.0816C9.98428 16.0816 7.7735 14.5388 4.83962 14.5388C3.22501 14.5388 1.39632 15.0531 -0.646454 16.0816V14.893C1.12404 13.8118 2.95273 13.2713 4.83962 13.2713C7.66996 13.2713 10.6437 14.893 13.2262 14.893C15.8088 14.893 18.6355 13.2713 22.0731 13.2713C25.5107 13.2713 28.1069 14.893 30.2491 14.893C32.0059 14.893 33.0454 13.5582 36.565 13.3051C37.0537 13.27 37.5697 13.4311 38.113 13.6631C38.6875 13.8643 39.1825 14.1379 39.6752 14.3829C40.4183 14.7042 41.2041 14.9564 42.0328 14.893C43.2441 14.8003 45.0297 13.4571 47.3896 13.2713C48.402 13.1916 50.1582 13.7321 52.6583 14.893Z" fill="#CA4ABE" fillRule="evenodd"/>
			<path d="M-0.646454 12.9025C1.39632 11.874 3.22501 11.3598 4.83962 11.3598C7.7735 11.3598 9.98428 12.9025 13.2262 12.9025C16.5028 12.9025 18.2954 11.3598 22.0731 11.3598C25.8508 11.3598 27.1981 12.9025 30.2491 12.9025C32.0059 12.9025 34.5522 11.4385 36.3987 11.3598C38.1856 11.2704 39.3629 13.0159 42.0328 13.022C43.7585 12.9587 45.7395 11.4734 47.3896 11.3411C48.2615 11.309 50.0178 11.8558 52.6583 12.9814V12.2347C50.1582 11.0739 48.402 10.5333 47.3896 10.6131C45.0297 10.7989 43.2441 12.1421 42.0328 12.2347C39.9363 12.3951 38.9859 10.7234 36.565 10.6469C34.1267 10.7664 32.0059 12.2347 30.2491 12.2347C28.1069 12.2347 25.5107 10.6131 22.0731 10.6131C18.6355 10.6131 15.8088 12.2347 13.2262 12.2347C10.6437 12.2347 7.66996 10.6131 4.83962 10.6131C2.95273 10.6131 1.12404 11.1536 -0.646454 12.2347V12.9025Z" fill="#CA4ABE" fillRule="evenodd"/>
		</g>
	</g>
	<defs>
		<clipPath id="clip0">
			<rect height="32.6" width="32" fill="white"/>
		</clipPath>
	</defs>
</svg>