<svg height="24" width="74" fill="none" viewBox="0 0 74 24" xmlns="http://www.w3.org/2000/svg">
	<path d="M19.2254 0.0538635H16.8546V4.66663H19.2254V0.0538635Z" fill="#003087"/>
	<path d="M40.0943 6.47614L27.9042 0.458556C27.9042 0.458556 27.2554 0.0582504 26.3197 0.0582504C26.3175 0.0582504 26.3157 0.0586168 26.3135 0.0586168C26.3113 0.0586168 26.3095 0.0582504 26.3073 0.0582504C25.3716 0.0582504 24.7228 0.458556 24.7228 0.458556L12.5327 6.47614C12.5327 6.47614 11.6343 6.87645 11.6343 7.72726C11.6343 8.57788 12.9319 9.67877 16.026 8.67791L26.3071 3.67382L26.3133 3.66136L26.3195 3.67382L36.6006 8.67791C39.6949 9.67877 40.9923 8.57788 40.9923 7.72726C40.9925 6.87645 40.0943 6.47614 40.0943 6.47614Z" fill="#F1C400"/>
	<path d="M8.03256 5.86718C7.1093 5.01124 5.69709 4.57704 3.83484 4.57704C2.5445 4.57704 1.31848 4.67542 0.190023 4.86943L0.0655937 4.89087V20.0363H2.25051V14.0457C2.68538 14.1301 3.18035 14.1424 3.61814 14.1424C5.56882 14.1424 7.19353 13.5384 8.19134 12.4434C8.96624 11.6217 9.35926 10.5052 9.35926 9.1255C9.35944 7.78663 8.88749 6.62895 8.03256 5.86718ZM3.66163 12.2792C3.07493 12.2792 2.61156 12.2385 2.25069 12.1561V6.54192C2.61302 6.46369 3.20703 6.41789 3.87815 6.41789C6.00387 6.41789 7.17453 7.41105 7.17453 9.21453C7.17453 11.1622 5.89405 12.2792 3.66163 12.2792Z" fill="#002E86"/>
	<path d="M10.2664 16.0685C10.3194 17.6757 11.5431 18.3701 12.9259 18.3701C13.9367 18.3701 14.6637 18.2235 15.3196 17.9685L15.639 19.5208C14.8943 19.8321 13.8658 20.0689 12.6246 20.0689C9.823 20.0689 8.1738 18.2966 8.1738 15.5753C8.1738 13.1089 9.62786 10.789 12.394 10.789C15.1956 10.789 16.1176 13.1639 16.1176 15.1185C16.1176 15.5388 16.0821 15.8677 16.0467 16.0686H10.2664V16.0685ZM14.0609 14.4971C14.0786 13.6754 13.724 12.3234 12.2701 12.3234C10.9226 12.3234 10.3554 13.5833 10.2666 14.4971H14.0609Z" fill="#002E86"/>
	<path d="M16.8702 13.6384C16.8702 12.6154 16.8526 11.7567 16.7995 10.9896H18.7143L18.8207 12.3234H18.8738C19.246 11.629 20.1861 10.7888 21.6222 10.7888C23.1293 10.7888 24.6899 11.7935 24.6899 14.607V19.8863H22.5088V14.8626C22.5088 13.5836 22.0478 12.6154 20.86 12.6154C19.991 12.6154 19.3882 13.2548 19.1578 13.9312C19.0867 14.1322 19.0693 14.406 19.0693 14.6616V19.8865H16.8702V13.6384Z" fill="#002E86"/>
	<path d="M25.7134 13.6384C25.7134 12.6154 25.6957 11.7567 25.6425 10.9896H27.5572L27.6638 12.3234H27.7169C28.0891 11.629 29.029 10.7888 30.4653 10.7888C31.9724 10.7888 33.533 11.7935 33.533 14.607V19.8863H31.3517V14.8626C31.3517 13.5836 30.8907 12.6154 29.7027 12.6154C28.8337 12.6154 28.2311 13.2548 28.0007 13.9312C27.9296 14.1322 27.9122 14.406 27.9122 14.6616V19.8865H25.7134V13.6384Z" fill="#002E86"/>
	<path d="M35.8728 10.9896L37.4334 15.7577C37.6108 16.3055 37.7879 16.9816 37.9119 17.4933H37.9649C38.1067 16.9816 38.2666 16.3238 38.4261 15.7396L39.7736 10.9896H42.1142L39.951 17.0548C38.763 20.3793 37.9649 21.8594 36.9368 22.7725C36.0861 23.5579 35.199 23.85 34.6494 23.9232L34.1529 22.0228C34.5251 21.932 34.9863 21.7312 35.4294 21.402C35.8372 21.1282 36.3159 20.598 36.6172 19.9953C36.7056 19.8313 36.7592 19.7025 36.7592 19.5935C36.7592 19.5023 36.7415 19.3746 36.6351 19.1547L33.4791 10.9893L35.8728 10.9896Z" fill="#002E86"/>
	<path d="M52.4863 14.8626C52.4156 13.2731 52.3268 11.3549 52.3447 9.69288H52.2917C51.9014 11.191 51.405 12.8534 50.8725 14.406L49.1353 19.7401H47.4503L45.855 14.4786C45.394 12.9078 44.9683 11.2271 44.6492 9.69252H44.6134C44.5606 11.3002 44.4894 13.2548 44.4011 14.9351L44.1352 19.8859H42.0965L42.8941 7.57319H45.7662L47.3266 12.524C47.7523 13.9669 48.1243 15.4285 48.4263 16.7987H48.4795C48.7982 15.465 49.2065 13.9488 49.6675 12.5056L51.3162 7.57319H54.1528L54.8444 19.8859H52.7167L52.4863 14.8626Z" fill="#002E86"/>
	<path d="M60.8373 19.8863L60.6955 18.8997H60.6425C60.1105 19.5939 59.2058 20.0869 58.0891 20.0869C56.3511 20.0869 55.3759 18.7898 55.3759 17.4379C55.3759 15.1914 57.3085 14.0581 60.5004 14.0765V13.9308C60.5004 13.3464 60.2694 12.3781 58.7447 12.3781C57.8941 12.3781 57.0074 12.6515 56.4222 13.0353L55.9968 11.5739C56.6348 11.1717 57.7522 10.7883 59.1172 10.7883C61.8837 10.7883 62.6813 12.5963 62.6813 14.5328V17.7479C62.6813 18.5524 62.7166 19.3378 62.8057 19.8856H60.8375V19.8863H60.8373ZM60.5537 15.5384C59.0114 15.5024 57.5393 15.8486 57.5393 17.2009C57.5393 18.0775 58.0893 18.4794 58.7805 18.4794C59.6491 18.4794 60.2879 17.8952 60.4825 17.2553C60.536 17.0911 60.5537 16.9085 60.5537 16.7623V15.5384Z" fill="#002E86"/>
	<path d="M70.27 19.6122C69.8089 19.8319 68.9042 20.0688 67.8227 20.0688C65.1277 20.0688 63.3725 18.2964 63.3725 15.5383C63.3725 12.871 65.1454 10.7885 68.1774 10.7885C68.9753 10.7885 69.7911 10.9713 70.2879 11.2087L69.8975 12.8896C69.5428 12.7251 69.0288 12.5423 68.2488 12.5423C66.5815 12.5423 65.5887 13.8029 65.6067 15.4285C65.6067 17.2556 66.7597 18.2964 68.2488 18.2964C69.0111 18.2964 69.5428 18.1323 69.9682 17.9496L70.27 19.6122Z" fill="#002E86"/>
	<path d="M71.5706 8.13783H72.2083C72.5998 8.13783 72.8988 8.32287 72.8988 8.74333C72.8988 9.02656 72.7449 9.20904 72.5131 9.2902L72.9605 10.0445H72.6221L72.2107 9.33783H71.8666V10.0445H71.5704V8.13783H71.5706ZM72.1971 9.08849C72.4487 9.08849 72.594 8.98479 72.594 8.74351C72.594 8.49691 72.4458 8.39872 72.1971 8.39872H71.867V9.08849H72.1971Z" fill="#353535"/>
	<path d="M72.1648 10.8066C71.2412 10.8066 70.4897 10.0529 70.4897 9.12659C70.4897 8.2003 71.2412 7.44659 72.1648 7.44659C73.0888 7.44659 73.8403 8.2003 73.8403 9.12659C73.8401 10.0531 73.0886 10.8066 72.1648 10.8066ZM72.1648 7.74669C71.4063 7.74669 70.7891 8.36574 70.7891 9.12659C70.7891 9.88745 71.4063 10.5065 72.1648 10.5065C72.9238 10.5065 73.5408 9.88745 73.5408 9.12659C73.5408 8.36592 72.9238 7.74669 72.1648 7.74669Z" fill="#353535"/>
</svg>