<svg height="24" width="74" fill="none" viewBox="0 0 74 24" xmlns="http://www.w3.org/2000/svg">
	<g clipPath="url(#clip0)">
		<path d="M19.3168 0.0548782H16.9522V4.66464H19.3168V0.0548782Z" fill="#626973"/>
		<path d="M40.0887 6.45732L27.9566 0.457317C27.9566 0.457317 27.3018 0.0548782 26.3742 0.0548782C25.4465 0.0548782 24.7917 0.457317 24.7917 0.457317L12.6596 6.45732C12.6596 6.45732 11.7683 6.85976 11.7683 7.70122C11.7683 8.54268 13.0598 9.65854 16.1337 8.65244L26.3742 3.67683V3.65854V3.67683L36.6146 8.67073C39.6886 9.67683 40.98 8.57927 40.98 7.71951C40.9982 6.85976 40.0887 6.45732 40.0887 6.45732Z" fill="#626973"/>
		<path d="M8.18508 5.85366C7.25744 4.99391 5.85688 4.57317 4.00159 4.57317C2.71017 4.57317 1.4915 4.66464 0.363774 4.86586L0.23645 4.88415V20.0122H2.41914V14.0305C2.85568 14.122 3.34678 14.122 3.78332 14.122C5.72955 14.122 7.34838 13.5183 8.33059 12.4207C9.09454 11.5976 9.4947 10.4817 9.4947 9.10976C9.4947 7.77439 9.02178 6.62195 8.18508 5.85366ZM3.8197 12.2561C3.23765 12.2561 2.78292 12.2195 2.41914 12.1281V6.53049C2.78292 6.45732 3.36497 6.40244 4.03797 6.40244C6.1479 6.40244 7.31201 7.39025 7.31201 9.20122C7.33019 11.1402 6.05696 12.2561 3.8197 12.2561Z" fill="#626973"/>
		<path d="M10.4042 16.0427C10.4587 17.6524 11.6774 18.3476 13.0598 18.3476C14.0602 18.3476 14.7877 18.2012 15.4425 17.9451L15.7517 19.5C15.006 19.811 13.9874 20.0488 12.7505 20.0488C9.96762 20.0488 8.31241 18.2744 8.31241 15.5671C8.31241 13.0976 9.76754 10.7927 12.5141 10.7927C15.297 10.7927 16.2247 13.1707 16.2247 15.1098C16.2247 15.5305 16.1883 15.8598 16.1519 16.061L10.4042 16.0427ZM14.1875 14.4695C14.2057 13.6463 13.8601 12.2927 12.405 12.2927C11.059 12.2927 10.4951 13.5549 10.4042 14.4695H14.1875Z" fill="#626973"/>
		<path d="M16.9704 13.6098C16.9704 12.5854 16.9522 11.7256 16.8976 10.9573H18.8075L18.9166 12.2927H18.9712C19.335 11.5976 20.2808 10.7561 21.6996 10.7561C23.1911 10.7561 24.7553 11.7622 24.7553 14.561V19.8293H22.5908V14.8354C22.5908 13.5549 22.1361 12.5854 20.9538 12.5854C20.0807 12.5854 19.4805 13.2256 19.2622 13.9024C19.1895 14.1037 19.1713 14.3781 19.1713 14.6341V19.8476H16.9886V13.6098H16.9704Z" fill="#626973"/>
		<path d="M25.7739 13.6098C25.7739 12.5854 25.7557 11.7256 25.7012 10.9573H27.611L27.7202 12.2927H27.7747C28.1385 11.5976 29.0843 10.7561 30.5031 10.7561C31.9946 10.7561 33.5589 11.7622 33.5589 14.561V19.8293H31.3944V14.8354C31.3944 13.5549 30.9396 12.5854 29.7573 12.5854C28.8843 12.5854 28.284 13.2256 28.0658 13.9024C27.993 14.1037 27.9748 14.3781 27.9748 14.6341V19.8476H25.7921V13.6098H25.7739Z" fill="#626973"/>
		<path d="M35.8871 10.9756L37.4331 15.7317C37.615 16.2805 37.7787 16.9573 37.9061 17.4695H37.9606C38.1061 16.9573 38.2698 16.2988 38.4154 15.7134L39.7613 10.9756H42.0896L39.9432 17.0305C38.761 20.3415 37.9606 21.8232 36.942 22.7378C36.0872 23.5244 35.2141 23.8171 34.6684 23.8902L34.1773 21.9878C34.5411 21.8963 35.014 21.6951 35.4505 21.3659C35.8507 21.0915 36.3418 20.561 36.6328 19.9573C36.7238 19.7927 36.7783 19.6646 36.7783 19.5549C36.7783 19.4634 36.7601 19.3354 36.651 19.1159L33.5043 10.9756H35.8871Z" fill="#626973"/>
		<path d="M52.4391 14.8354C52.3664 13.2439 52.2754 11.3415 52.2936 9.67683H52.239C51.8571 11.1768 51.3478 12.8415 50.8203 14.378L49.0923 19.7012H47.4189L45.8365 14.4512C45.3818 12.878 44.9452 11.2134 44.636 9.67683H44.5996C44.5451 11.2866 44.4723 13.2256 44.3814 14.9085L44.1085 19.8476H42.0714L42.8717 7.55488H45.7274L47.2734 12.4939C47.6918 13.939 48.0737 15.4024 48.3648 16.7561H48.4193C48.7286 15.4207 49.1469 13.9024 49.6016 12.4756L51.2386 7.55488H54.058L54.7491 19.8476H52.6392L52.4391 14.8354Z" fill="#626973"/>
		<path d="M60.7516 19.8476L60.6061 18.8598H60.5515C60.024 19.5549 59.1145 20.0488 58.005 20.0488C56.277 20.0488 55.313 18.75 55.313 17.3963C55.313 15.1463 57.2411 14.0305 60.406 14.0488V13.9024C60.406 13.3171 60.1695 12.3476 58.6598 12.3476C57.8049 12.3476 56.9318 12.622 56.3498 13.0061L55.9314 11.5427C56.5681 11.1402 57.6776 10.7561 59.0418 10.7561C61.7883 10.7561 62.5887 12.5671 62.5887 14.4878V17.689C62.5887 18.4939 62.625 19.2805 62.716 19.8293L60.7516 19.8476ZM60.4605 15.5122C58.9327 15.4756 57.4593 15.8232 57.4593 17.1768C57.4593 18.0549 58.005 18.4573 58.6962 18.4573C59.5693 18.4573 60.1877 17.872 60.3878 17.2317C60.4423 17.0671 60.4605 16.8841 60.4605 16.7378V15.5122Z" fill="#626973"/>
		<path d="M70.1371 19.5915C69.6824 19.811 68.7729 20.0488 67.6998 20.0488C65.0078 20.0488 63.2617 18.2744 63.2617 15.5305C63.2617 12.8598 65.026 10.7927 68.0454 10.7927C68.8457 10.7927 69.646 10.9756 70.1553 11.2134L69.7733 12.8963C69.4278 12.7317 68.9003 12.5488 68.1363 12.5488C66.4811 12.5488 65.4807 13.811 65.4989 15.439C65.4989 17.2683 66.6448 18.311 68.1363 18.311C68.9003 18.311 69.4278 18.1463 69.8461 17.9634L70.1371 19.5915Z" fill="#626973"/>
		<path d="M71.4285 8.12195H72.0652C72.4471 8.12195 72.7563 8.30488 72.7563 8.72561C72.7563 9 72.6108 9.18293 72.3744 9.27439L72.8109 10.0244H72.4653L72.047 9.31098H71.7014V10.0244H71.4104L71.4285 8.12195ZM72.047 9.07317C72.3016 9.07317 72.4471 8.96342 72.4471 8.72561C72.4471 8.48781 72.3016 8.37805 72.047 8.37805H71.7196V9.07317H72.047Z" fill="#626973"/>
		<path d="M72.0288 10.7927C71.1011 10.7927 70.3554 10.0427 70.3554 9.10976C70.3554 8.17683 71.1011 7.42683 72.0288 7.42683C72.9564 7.42683 73.7022 8.17683 73.7022 9.10976C73.684 10.0427 72.9382 10.7927 72.0288 10.7927ZM72.0288 7.73781C71.2648 7.73781 70.6646 8.35976 70.6646 9.10976C70.6646 9.85976 71.283 10.4817 72.0288 10.4817C72.7927 10.4817 73.393 9.85976 73.393 9.10976C73.393 8.35976 72.7745 7.73781 72.0288 7.73781Z" fill="#626973"/>
	</g>
	<defs>
		<clipPath id="clip0">
			<path d="M0 0H73.8113V24H0V0Z" fill="white"/>
		</clipPath>
	</defs>
</svg>