<svg height="42" width="106" fill="none" viewBox="0 0 106 42" xmlns="http://www.w3.org/2000/svg">
	<mask height="33" id="mask0" width="33" x="4" y="5" maskUnits="userSpaceOnUse">
		<circle cx="20.7226" cy="21.1107" fill="#C4C4C4" r="16.0806" transform="rotate(-35.0494 20.7226 21.1107)"/>
	</mask>
	<g mask="url(#mask0)">
		<path d="M6.85376 10.1553L10.1661 6.27393C13.3911 -0.657634 31.5866 4.68363 33.866 11.2744C33.866 11.2744 34.5046 12.7819 34.0021 14.2895C32.2776 12.7247 29.6489 11.2631 26.0677 9.5969C11.7248 2.92374 6.85376 10.1553 6.85376 10.1553Z" fill="#2763D6"/>
		<path d="M5.86111 12.7819L8.3476 10.1825C8.3476 10.1825 11.465 3.4821 25.8079 10.1553C29.5731 11.907 32.135 13.6607 33.866 15.2945C33.4996 16.8021 32.997 17.6908 32.997 17.6908C31.2652 16.011 28.6593 14.1988 24.7688 12.3887C10.4259 5.71556 5.86111 12.7819 5.86111 12.7819Z" fill="#2763D6"/>
		<path d="M5.86114 14.7618C5.52587 15.1623 6.85383 13.3931 6.85383 13.3931C6.85383 13.3931 9.97125 6.6927 24.3142 13.3659C28.169 15.1594 30.7626 16.9548 32.4945 18.6217C31.992 19.3147 31.6333 19.8172 31.6333 19.8172C29.9039 18.2073 27.3655 16.4836 23.6647 14.7618C13.399 10.4071 8.34767 11.791 5.86114 14.7618Z" fill="#2763D6"/>
		<path d="M38.0908 16.1669L39.3448 21.1198C43.1674 27.7406 28.0531 39.7379 21.2729 37.8626C21.2729 37.8626 19.6531 37.5306 18.7047 36.255C21.0108 35.7219 23.7637 34.3823 27.2459 32.3718C41.1924 24.3198 38.0908 16.1669 38.0908 16.1669Z" fill="#5189DE"/>
		<path d="M36.5073 13.8477L37.1894 17.3865C37.1894 17.3865 40.8844 23.7865 26.938 31.8385C23.2769 33.9522 20.3222 35.07 17.9554 35.5692C16.9269 34.4061 16.4892 33.4836 16.4892 33.4836C18.8945 33.0101 21.9233 31.8893 25.7063 29.7052C39.6528 21.6532 36.5073 13.8477 36.5073 13.8477Z" fill="#5189DE"/>
		<path d="M34.8735 12.7182C34.7402 12.2125 35.4188 14.3198 35.4188 14.3198C35.4188 14.3198 39.1139 20.7198 25.1674 28.7718C21.4191 30.9359 18.4113 32.0561 16.0167 32.5371C15.7405 31.7263 15.5369 31.143 15.5369 31.143C17.883 30.6315 20.7991 29.5161 24.3976 27.4385C34.0317 21.4349 35.8619 16.4689 34.8735 12.7182Z" fill="#5189DE"/>
		<path d="M16.5905 40.1189L11.6741 38.753C4.02904 38.753 1.19624 20.0024 6.21037 15.1555C6.21037 15.1555 7.30784 13.9406 8.88668 13.7603C8.19533 15.9839 7.97905 18.9839 7.97906 22.9337C7.97906 38.753 16.5905 40.1189 16.5905 40.1189Z" fill="#278CD6"/>
		<path d="M19.3907 39.9109L15.985 38.753C15.985 38.753 8.5949 38.753 8.5949 22.9337C8.5949 18.7809 9.10416 15.7183 9.85532 13.4597C11.3768 13.156 12.3945 13.2367 12.3945 13.2367C11.602 15.5156 11.0583 18.6426 11.0583 22.9337C11.0583 38.753 19.3907 39.9109 19.3907 39.9109Z" fill="#278CD6"/>
		<path d="M21.1858 39.0757C21.6904 39.2107 19.5261 38.753 19.5261 38.753C19.5261 38.753 12.136 38.753 12.136 22.9337C12.136 18.682 12.6698 15.5731 13.4505 13.2997C14.2908 13.463 14.8977 13.5762 14.8977 13.5762C14.1676 15.8233 13.6756 18.8519 13.6756 22.9337C14.0578 34.0783 17.4434 38.0743 21.1858 39.0757Z" fill="#278CD6"/>
	</g>
	<path d="M54.8315 30.8726H58.5752L54.6807 24.2394C56.6908 23.3097 58.0727 21.3248 58.0727 19.1137C58.0727 15.8976 55.4596 13.2845 52.2184 13.2845H45.1831V30.8726H48.6505V24.767H51.2887L54.8315 30.8726ZM48.6505 16.5258H52.2184C53.5249 16.5258 54.6053 17.6564 54.6053 19.1137C54.6053 20.571 53.5249 21.7268 52.2184 21.7268H48.6505V16.5258ZM62.0742 16.8021C63.1797 16.8021 64.0843 15.8976 64.0843 14.8172C64.0843 13.7368 63.1797 12.8071 62.0742 12.8071C60.9938 12.8071 60.0893 13.7368 60.0893 14.8172C60.0893 15.8976 60.9938 16.8021 62.0742 16.8021ZM60.4662 30.8726H63.7074V18.3097H60.4662V30.8726ZM80.5686 17.9579C78.8601 17.9579 77.6038 18.6363 76.8249 19.767C76.1213 18.6112 74.9656 17.9579 73.4077 17.9579C71.7997 17.9579 70.6188 18.5861 69.9153 19.6414V18.3097H66.674V30.8726H69.9153V23.8123C69.9153 21.9278 70.8952 20.973 72.2771 20.973C73.6339 20.973 74.3877 21.8776 74.3877 23.36V30.8726H77.6289V23.8123C77.6289 21.9278 78.5334 20.973 79.9656 20.973C81.3224 20.973 82.0762 21.8776 82.0762 23.36V30.8726H85.3174V23.1339C85.3174 19.9931 83.433 17.9579 80.5686 17.9579ZM91.0602 21.8776C91.0602 21.1992 91.7135 20.8474 92.5175 20.8474C93.4472 20.8474 94.1507 21.3248 94.5276 22.1288L97.2915 20.6213C96.3116 18.8876 94.5527 17.9579 92.5175 17.9579C89.9296 17.9579 87.7436 19.3901 87.7436 21.953C87.7436 26.3751 94.2261 25.3701 94.2261 27.2043C94.2261 27.9329 93.5226 28.2847 92.4924 28.2847C91.2361 28.2847 90.3818 27.6817 90.0301 26.6515L87.216 28.2344C88.1205 30.1691 89.9798 31.2244 92.4924 31.2244C95.1809 31.2244 97.5427 29.9179 97.5427 27.2043C97.5427 22.5811 91.0602 23.7369 91.0602 21.8776Z" fill="#19191B"/>
</svg>