<svg height="42" width="106" fill="none" viewBox="0 0 106 42" xmlns="http://www.w3.org/2000/svg">
	<mask height="33" id="mask0" width="33" x="4" y="5" maskUnits="userSpaceOnUse">
		<circle cx="20.7226" cy="21.1107" fill="#C4C4C4" r="16.0806" transform="rotate(-35.0494 20.7226 21.1107)"/>
	</mask>
	<g mask="url(#mask0)">
		<path d="M6.85376 10.1553L10.1661 6.27393C13.3911 -0.657634 31.5866 4.68363 33.866 11.2744C33.866 11.2744 34.5046 12.7819 34.0021 14.2895C32.2776 12.7247 29.6489 11.2631 26.0677 9.5969C11.7248 2.92374 6.85376 10.1553 6.85376 10.1553Z" fill="#63655F"/>
		<path d="M5.86111 12.7819L8.3476 10.1825C8.3476 10.1825 11.465 3.4821 25.8079 10.1553C29.5731 11.907 32.135 13.6607 33.866 15.2945C33.4996 16.8021 32.997 17.6908 32.997 17.6908C31.2652 16.011 28.6593 14.1988 24.7688 12.3887C10.4259 5.71556 5.86111 12.7819 5.86111 12.7819Z" fill="#63655F"/>
		<path d="M5.86114 14.7618C5.52587 15.1623 6.85383 13.3931 6.85383 13.3931C6.85383 13.3931 9.97125 6.6927 24.3142 13.3659C28.169 15.1594 30.7626 16.9548 32.4945 18.6217C31.992 19.3147 31.6333 19.8172 31.6333 19.8172C29.9039 18.2073 27.3655 16.4836 23.6647 14.7618C13.399 10.4071 8.34767 11.791 5.86114 14.7618Z" fill="#63655F"/>
		<path d="M38.0908 16.1669L39.3448 21.1198C43.1674 27.7406 28.0531 39.7379 21.2729 37.8626C21.2729 37.8626 19.6531 37.5306 18.7047 36.255C21.0108 35.7219 23.7637 34.3823 27.2459 32.3718C41.1924 24.3198 38.0908 16.1669 38.0908 16.1669Z" fill="#63655F"/>
		<path d="M36.5073 13.8477L37.1894 17.3865C37.1894 17.3865 40.8844 23.7865 26.938 31.8385C23.2769 33.9522 20.3222 35.07 17.9554 35.5692C16.9269 34.4061 16.4892 33.4836 16.4892 33.4836C18.8945 33.0101 21.9233 31.8893 25.7063 29.7052C39.6528 21.6532 36.5073 13.8477 36.5073 13.8477Z" fill="#63655F"/>
		<path d="M34.8735 12.7182C34.7402 12.2125 35.4188 14.3198 35.4188 14.3198C35.4188 14.3198 39.1139 20.7198 25.1674 28.7718C21.4191 30.9359 18.4113 32.0561 16.0167 32.5371C15.7405 31.7263 15.5369 31.143 15.5369 31.143C17.883 30.6315 20.7991 29.5161 24.3976 27.4385C34.0317 21.4349 35.8619 16.4689 34.8735 12.7182Z" fill="#63655F"/>
		<path d="M16.5905 40.1189L11.6741 38.753C4.02904 38.753 1.19624 20.0024 6.21037 15.1555C6.21037 15.1555 7.30784 13.9406 8.88668 13.7603C8.19533 15.9839 7.97905 18.9839 7.97906 22.9337C7.97906 38.753 16.5905 40.1189 16.5905 40.1189Z" fill="#63655F"/>
		<path d="M19.3907 39.9109L15.985 38.753C15.985 38.753 8.5949 38.753 8.5949 22.9337C8.5949 18.7809 9.10416 15.7183 9.85532 13.4597C11.3768 13.156 12.3945 13.2367 12.3945 13.2367C11.602 15.5156 11.0583 18.6426 11.0583 22.9337C11.0583 38.753 19.3907 39.9109 19.3907 39.9109Z" fill="#63655F"/>
		<path d="M21.1858 39.0757C21.6904 39.2107 19.5261 38.753 19.5261 38.753C19.5261 38.753 12.136 38.753 12.136 22.9337C12.136 18.682 12.6698 15.5731 13.4505 13.2997C14.2908 13.463 14.8977 13.5762 14.8977 13.5762C14.1676 15.8233 13.6756 18.8519 13.6756 22.9337C14.0578 34.0783 17.4434 38.0743 21.1858 39.0757Z" fill="#63655F"/>
	</g>
	<path d="M57.8466 30.8726H61.5903L57.6958 24.2394C59.7059 23.3097 61.0878 21.3248 61.0878 19.1137C61.0878 15.8976 58.4747 13.2845 55.2335 13.2845H48.1983V30.8726H51.6656V24.767H54.3038L57.8466 30.8726ZM51.6656 16.5258H55.2335C56.54 16.5258 57.6205 17.6564 57.6205 19.1137C57.6205 20.571 56.54 21.7268 55.2335 21.7268H51.6656V16.5258ZM65.0893 16.8021C66.1949 16.8021 67.0994 15.8976 67.0994 14.8172C67.0994 13.7368 66.1949 12.8071 65.0893 12.8071C64.0089 12.8071 63.1044 13.7368 63.1044 14.8172C63.1044 15.8976 64.0089 16.8021 65.0893 16.8021ZM63.4813 30.8726H66.7225V18.3097H63.4813V30.8726ZM83.5837 17.9579C81.8752 17.9579 80.6189 18.6363 79.84 19.767C79.1364 18.6112 77.9807 17.9579 76.4229 17.9579C74.8148 17.9579 73.6339 18.5861 72.9304 19.6414V18.3097H69.6891V30.8726H72.9304V23.8123C72.9304 21.9278 73.9103 20.973 75.2922 20.973C76.649 20.973 77.4028 21.8776 77.4028 23.36V30.8726H80.644V23.8123C80.644 21.9278 81.5485 20.973 82.9807 20.973C84.3375 20.973 85.0913 21.8776 85.0913 23.36V30.8726H88.3325V23.1339C88.3325 19.9931 86.4481 17.9579 83.5837 17.9579ZM94.0754 21.8776C94.0754 21.1992 94.7286 20.8474 95.5327 20.8474C96.4623 20.8474 97.1658 21.3248 97.5427 22.1288L100.307 20.6213C99.3267 18.8876 97.5678 17.9579 95.5327 17.9579C92.9447 17.9579 90.7587 19.3901 90.7587 21.953C90.7587 26.3751 97.2412 25.3701 97.2412 27.2043C97.2412 27.9329 96.5377 28.2847 95.5075 28.2847C94.2512 28.2847 93.397 27.6817 93.0452 26.6515L90.2311 28.2344C91.1356 30.1691 92.9949 31.2244 95.5075 31.2244C98.196 31.2244 100.558 29.9179 100.558 27.2043C100.558 22.5811 94.0754 23.7369 94.0754 21.8776Z" fill="#63655F"/>
</svg>