<svg height="30" width="102" fill="none" viewBox="0 0 102 30" xmlns="http://www.w3.org/2000/svg">
	<line stroke="#F0372A" strokeLinecap="round" strokeWidth="4" x1="2" x2="2" y1="8" y2="23"/>
	<line stroke="#F0372A" strokeLinecap="round" strokeWidth="4" x1="17" x2="2" y1="23" y2="23"/>
	<line stroke="#1E5BCB" strokeLinecap="round" strokeWidth="4" x1="22" x2="7" y1="3" y2="3"/>
	<line stroke="#1E5BCB" strokeLinecap="round" strokeWidth="4" x1="7" x2="7" y1="18" y2="3"/>
	<line stroke="#F1C400" strokeLinecap="round" strokeWidth="4" x1="27" x2="27" y1="23" y2="8"/>
	<line stroke="#F1C400" strokeLinecap="round" strokeWidth="4" x1="12" x2="27" y1="8" y2="8"/>
	<line stroke="white" strokeLinecap="round" strokeWidth="4" x1="7" x2="22" y1="28" y2="28"/>
	<line stroke="white" strokeLinecap="round" strokeWidth="4" x1="22" x2="22" y1="13" y2="28"/>
	<path d="M48.225 24H51.95L48.075 17.4C50.075 16.475 51.45 14.5 51.45 12.3C51.45 9.1 48.85 6.5 45.625 6.5H38.625V24H42.075V17.925H44.7L48.225 24ZM42.075 9.725H45.625C46.925 9.725 48 10.85 48 12.3C48 13.75 46.925 14.9 45.625 14.9H42.075V9.725ZM61.8129 11.5V18.25C61.8129 20.425 60.6379 21.35 59.0629 21.35C57.6129 21.35 56.5879 20.475 56.5879 18.775V11.5H53.3629V19.175C53.3629 22.5 55.4379 24.35 58.0879 24.35C59.7629 24.35 61.0629 23.725 61.8129 22.6V24H65.0379V11.5H61.8129ZM75.2666 11.15C73.4416 11.15 72.1166 11.825 71.2166 12.975V6.5H67.9916V24H71.2166V22.525C72.1166 23.675 73.4416 24.35 75.2666 24.35C78.6166 24.35 81.3666 21.475 81.3666 17.75C81.3666 14.025 78.6166 11.15 75.2666 11.15ZM74.6666 21.275C72.6916 21.275 71.2166 19.85 71.2166 17.75C71.2166 15.65 72.6916 14.225 74.6666 14.225C76.6666 14.225 78.1416 15.65 78.1416 17.75C78.1416 19.85 76.6666 21.275 74.6666 21.275ZM85.241 10C86.341 10 87.241 9.1 87.241 8.025C87.241 6.95 86.341 6.025 85.241 6.025C84.166 6.025 83.266 6.95 83.266 8.025C83.266 9.1 84.166 10 85.241 10ZM83.641 24H86.866V11.5H83.641V24ZM101.343 24L96.7678 17.6L101.143 11.5H97.4428L94.9178 15.025L92.3928 11.5H88.6678L93.0428 17.625L88.4678 24H92.1928L94.9178 20.2L97.6178 24H101.343Z" fill="white"/>
</svg>